<?xml version="1.0" encoding="UTF-8"?>
<svg version="1.1" xmlns="http://www.w3.org/2000/svg" width="64" height="64">
<path d="M0 0 C5.28 0 10.56 0 16 0 C16.33 1.32 16.66 2.64 17 4 C17.66 4 18.32 4 19 4 C19 2.68 19 1.36 19 0 C31.21 0 43.42 0 56 0 C56 2.31 56 4.62 56 7 C52.59568053 9.26954631 50.83475798 9.36549949 46.8125 9.625 C45.72582031 9.69976562 44.63914063 9.77453125 43.51953125 9.8515625 C42.27236328 9.92503906 42.27236328 9.92503906 41 10 C46.445 10.495 46.445 10.495 52 11 C52 13.31 52 15.62 52 18 C49.47524538 19.26237731 47.68799534 19.09856404 44.875 19.0625 C43.26625 19.041875 41.6575 19.02125 40 19 C40 22.63 40 26.26 40 30 C27.13 30 14.26 30 1 30 C1 28.68 1 27.36 1 26 C-0.32 26 -1.64 26 -3 26 C-3 18.74 -3 11.48 -3 4 C-1.68 4 -0.36 4 1 4 C0.67 2.68 0.34 1.36 0 0 Z M7 9 C7 13.29 7 17.58 7 22 C7.33 22 7.66 22 8 22 C8 19.69 8 17.38 8 15 C11.63 15.33 15.26 15.66 19 16 C19.33 17.98 19.66 19.96 20 22 C20.66 22 21.32 22 22 22 C22 17.71 22 13.42 22 9 C21.34 9 20.68 9 20 9 C20 10.32 20 11.64 20 13 C17.36 12.67 14.72 12.34 12 12 C12 11.01 12 10.02 12 9 C10.35 9 8.7 9 7 9 Z M30 9 C30 13.29 30 17.58 30 22 C30.66 22 31.32 22 32 22 C32 17.71 32 13.42 32 9 C31.34 9 30.68 9 30 9 Z " fill="#4D3305" transform="translate(7,32)"/>
<path d="M0 0 C2.31 0 4.62 0 7 0 C7.33 0.99 7.66 1.98 8 3 C8.66 3.28875 9.32 3.5775 10 3.875 C12 5 12 5 12.75 7.625 C12.87375 8.800625 12.87375 8.800625 13 10 C14.32 10 15.64 10 17 10 C17 7.69 17 5.38 17 3 C17.99 2.67 18.98 2.34 20 2 C20 1.34 20 0.68 20 0 C22.31 0 24.62 0 27 0 C27 0.99 27 1.98 27 3 C27.99 3 28.98 3 30 3 C30 2.01 30 1.02 30 0 C34.62 0 39.24 0 44 0 C44 0.99 44 1.98 44 3 C44.99 3 45.98 3 47 3 C47 5.64 47 8.28 47 11 C44.29120665 12.35439668 41.99066732 12.06501451 39 12 C38.505 11.01 38.505 11.01 38 10 C36.68 9.67 35.36 9.34 34 9 C34 12.96 34 16.92 34 21 C35.32 20.67 36.64 20.34 38 20 C38.495 18.515 38.495 18.515 39 17 C41.64 17 44.28 17 47 17 C47 19.31 47 21.62 47 24 C46.01 24 45.02 24 44 24 C44 24.99 44 25.98 44 27 C39.05 27 34.1 27 29 27 C29 26.01 29 25.02 29 24 C28.34 24 27.68 24 27 24 C27 24.99 27 25.98 27 27 C24.69 27 22.38 27 20 27 C20 25.02 20 23.04 20 21 C19.34 21 18.68 21 18 21 C18 22.98 18 24.96 18 27 C12.06 27 6.12 27 0 27 C0 18.09 0 9.18 0 0 Z " fill="#2C070C" transform="translate(8,4)"/>
<path d="M0 0 C4.62 0 9.24 0 14 0 C14 0.33 14 0.66 14 1 C8.555 1.495 8.555 1.495 3 2 C2.67 2.99 2.34 3.98 2 5 C1.01 5 0.02 5 -1 5 C-1 11.27 -1 17.54 -1 24 C0.32 24 1.64 24 3 24 C3 25.32 3 26.64 3 28 C7.95 28 12.9 28 18 28 C18 24.37 18 20.74 18 17 C15.36 17 12.72 17 10 17 C10 18.32 10 19.64 10 21 C10.99 21 11.98 21 13 21 C13 21.66 13 22.32 13 23 C10.36 23 7.72 23 5 23 C5 17.72 5 12.44 5 7 C7.64 7 10.28 7 13 7 C12.67 8.32 12.34 9.64 12 11 C12 10.34 12 9.68 12 9 C10.35 9 8.7 9 7 9 C7.33 10.98 7.66 12.96 8 15 C8.78246094 14.98839844 9.56492187 14.97679687 10.37109375 14.96484375 C11.38300781 14.95582031 12.39492188 14.94679688 13.4375 14.9375 C14.44683594 14.92589844 15.45617187 14.91429687 16.49609375 14.90234375 C19 15 19 15 20 16 C20.04080783 17.99958364 20.04254356 20.00045254 20 22 C20.66 22 21.32 22 22 22 C22 17.38 22 12.76 22 8 C24 10 24 10 24.1953125 13.2578125 C24.17210938 14.53398438 24.14890625 15.81015625 24.125 17.125 C24.10695313 18.40632813 24.08890625 19.68765625 24.0703125 21.0078125 C24.04710938 21.99523437 24.02390625 22.98265625 24 24 C23.01 24 22.02 24 21 24 C21 25.32 21 26.64 21 28 C24.63 28 28.26 28 32 28 C32 26.68 32 25.36 32 24 C30.68 24 29.36 24 28 24 C28 18.06 28 12.12 28 6 C29.32 6 30.64 6 32 6 C32 4.68 32 3.36 32 2 C32.66 2 33.32 2 34 2 C34 10.58 34 19.16 34 28 C35.65 28 37.3 28 39 28 C39 24.37 39 20.74 39 17 C42.63 17 46.26 17 50 17 C50 15.68 50 14.36 50 13 C46.04 13 42.08 13 38 13 C38 10.69 38 8.38 38 6 C42.95 6 47.9 6 53 6 C53 4.35 53 2.7 53 1 C47.06 1 41.12 1 35 1 C35 0.67 35 0.34 35 0 C41.93 0 48.86 0 56 0 C56 2.31 56 4.62 56 7 C52.59568053 9.26954631 50.83475798 9.36549949 46.8125 9.625 C45.72582031 9.69976562 44.63914063 9.77453125 43.51953125 9.8515625 C42.27236328 9.92503906 42.27236328 9.92503906 41 10 C46.445 10.495 46.445 10.495 52 11 C52 13.31 52 15.62 52 18 C49.47524538 19.26237731 47.68799534 19.09856404 44.875 19.0625 C43.26625 19.041875 41.6575 19.02125 40 19 C40 22.63 40 26.26 40 30 C27.13 30 14.26 30 1 30 C1 28.68 1 27.36 1 26 C-0.32 26 -1.64 26 -3 26 C-3 18.74 -3 11.48 -3 4 C-1.68 4 -0.36 4 1 4 C0.67 2.68 0.34 1.36 0 0 Z M30 9 C30 13.29 30 17.58 30 22 C30.66 22 31.32 22 32 22 C32 17.71 32 13.42 32 9 C31.34 9 30.68 9 30 9 Z " fill="#251600" transform="translate(7,32)"/>
<path d="M0 0 C1.32 0 2.64 0 4 0 C4 0.99 4 1.98 4 3 C4.99 3 5.98 3 7 3 C7 5.31 7 7.62 7 10 C8.32 10 9.64 10 11 10 C11 12.31 11 14.62 11 17 C11.66 17 12.32 17 13 17 C13 14.69 13 12.38 13 10 C14.32 10 15.64 10 17 10 C17 7.69 17 5.38 17 3 C17.99 3 18.98 3 20 3 C20 2.01 20 1.02 20 0 C21.32 0 22.64 0 24 0 C24 7.92 24 15.84 24 24 C22.68 24 21.36 24 20 24 C20 19.71 20 15.42 20 11 C19.01 11 18.02 11 17 11 C17 12.98 17 14.96 17 17 C16.01 17 15.02 17 14 17 C14 19.31 14 21.62 14 24 C12.68 24 11.36 24 10 24 C10 21.69 10 19.38 10 17 C9.01 17 8.02 17 7 17 C7 15.02 7 13.04 7 11 C6.01 11 5.02 11 4 11 C4 15.29 4 19.58 4 24 C2.68 24 1.36 24 0 24 C0 16.08 0 8.16 0 0 Z " fill="#45740B" transform="translate(10,6)"/>
<path d="M0 0 C2.31 0 4.62 0 7 0 C7.33 0.99 7.66 1.98 8 3 C8.66 3.28875 9.32 3.5775 10 3.875 C12 5 12 5 12.75 7.625 C12.87375 8.800625 12.87375 8.800625 13 10 C14.32 10 15.64 10 17 10 C17 7.69 17 5.38 17 3 C17.99 2.67 18.98 2.34 20 2 C20 1.34 20 0.68 20 0 C22.97 0.495 22.97 0.495 26 1 C24.68 1.33 23.36 1.66 22 2 C22 2.99 22 3.98 22 5 C21.01 5 20.02 5 19 5 C19 7.31 19 9.62 19 12 C17.68 12 16.36 12 15 12 C15 14.31 15 16.62 15 19 C14.34 19 13.68 19 13 19 C13 16.69 13 14.38 13 12 C11.68 12 10.36 12 9 12 C9 9.69 9 7.38 9 5 C8.01 5 7.02 5 6 5 C6 4.01 6 3.02 6 2 C4.68 2 3.36 2 2 2 C2 9.92 2 17.84 2 26 C3.32 26 4.64 26 6 26 C6 21.71 6 17.42 6 13 C6.99 13 7.98 13 9 13 C9 14.98 9 16.96 9 19 C9.99 19 10.98 19 12 19 C12 21.31 12 23.62 12 26 C11.67 26 11.34 26 11 26 C11 24.02 11 22.04 11 20 C10.34 20 9.68 20 9 20 C9 22.31 9 24.62 9 27 C6.03 27 3.06 27 0 27 C0 18.09 0 9.18 0 0 Z " fill="#2D0A0C" transform="translate(8,4)"/>
<path d="M0 0 C3.3 0 6.6 0 10 0 C10 0.99 10 1.98 10 3 C11.32 3 12.64 3 14 3 C14 4.32 14 5.64 14 7 C12.35 7.33 10.7 7.66 9 8 C9 6.68 9 5.36 9 4 C6.03 4 3.06 4 0 4 C0 9.28 0 14.56 0 20 C3.3 20 6.6 20 10 20 C10 19.01 10 18.02 10 17 C11.32 17 12.64 17 14 17 C14.33 18.65 14.66 20.3 15 22 C13.68 21.67 12.36 21.34 11 21 C11 21.99 11 22.98 11 24 C7.04 24 3.08 24 -1 24 C-1 23.01 -1 22.02 -1 21 C-1.99 21 -2.98 21 -4 21 C-4 15.06 -4 9.12 -4 3 C-2.68 3 -1.36 3 0 3 C0 2.01 0 1.02 0 0 Z " fill="#394B0C" transform="translate(40,6)"/>
<path d="M0 0 C5.94 0 11.88 0 18 0 C18 1.32 18 2.64 18 4 C13.05 4 8.1 4 3 4 C3 6.31 3 8.62 3 11 C6.96 11 10.92 11 15 11 C15 12.32 15 13.64 15 15 C11.04 15 7.08 15 3 15 C3 18.3 3 21.6 3 25 C2.01 25 1.02 25 0 25 C0 16.75 0 8.5 0 0 Z " fill="#ECBA50" transform="translate(42,34)"/>
<path d="M0 0 C3.63 0 7.26 0 11 0 C11 1.32 11 2.64 11 4 C9.68 4 8.36 4 7 4 C7 9.94 7 15.88 7 22 C8.32 22 9.64 22 11 22 C11 23.32 11 24.64 11 26 C7.37 26 3.74 26 0 26 C0 24.68 0 23.36 0 22 C0.99 22 1.98 22 3 22 C3 16.06 3 10.12 3 4 C2.01 4 1.02 4 0 4 C0 2.68 0 1.36 0 0 Z " fill="#E5AE3B" transform="translate(28,34)"/>
<path d="M0 0 C3.96 0 7.92 0 12 0 C12 0.99 12 1.98 12 3 C12.99 3 13.98 3 15 3 C15 4.32 15 5.64 15 7 C14.01 7 13.02 7 12 7 C12 6.01 12 5.02 12 4 C8.37 4 4.74 4 1 4 C1 9.94 1 15.88 1 22 C-0.32 22 -1.64 22 -3 22 C-3 15.73 -3 9.46 -3 3 C-2.01 3 -1.02 3 0 3 C0 2.01 0 1.02 0 0 Z " fill="#C59739" transform="translate(9,34)"/>
<path d="M0 0 C2.64 0 5.28 0 8 0 C8 3.63 8 7.26 8 11 C3.05 11 -1.9 11 -7 11 C-7 9.68 -7 8.36 -7 7 C-3.37 7 0.26 7 4 7 C4 5.68 4 4.36 4 3 C2.68 3 1.36 3 0 3 C0 2.01 0 1.02 0 0 Z " fill="#DE9B09" transform="translate(17,49)"/>
<path d="M0 0 C3.3 0 6.6 0 10 0 C10 0.99 10 1.98 10 3 C11.32 3 12.64 3 14 3 C14 4.32 14 5.64 14 7 C12.35 7.33 10.7 7.66 9 8 C9 6.68 9 5.36 9 4 C6.03 4 3.06 4 0 4 C0.02320313 4.69867188 0.04640625 5.39734375 0.0703125 6.1171875 C0.08835938 7.02726563 0.10640625 7.93734375 0.125 8.875 C0.14820313 9.77992187 0.17140625 10.68484375 0.1953125 11.6171875 C0 14 0 14 -2 16 C-3.32229189 13.35541621 -3.09677194 11.32238699 -3.0625 8.375 C-3.05347656 7.37210938 -3.04445312 6.36921875 -3.03515625 5.3359375 C-3.02355469 4.56507812 -3.01195312 3.79421875 -3 3 C-2.01 3 -1.02 3 0 3 C0 2.01 0 1.02 0 0 Z " fill="#65800D" transform="translate(40,6)"/>
<path d="M0 0 C11.37473908 -0.13947228 22.64906646 0.26429134 34 1 C34 1.33 34 1.66 34 2 C28.06 2 22.12 2 16 2 C16 10.25 16 18.5 16 27 C16.99 27 17.98 27 19 27 C19 23.7 19 20.4 19 17 C19.33 17 19.66 17 20 17 C20 20.63 20 24.26 20 28 C18.35 28 16.7 28 15 28 C15 19.42 15 10.84 15 2 C10.38 2 5.76 2 1 2 C0.67 3.32 0.34 4.64 0 6 C0 4.02 0 2.04 0 0 Z " fill="#634613" transform="translate(26,32)"/>
<path d="M0 0 C6.93 0 13.86 0 21 0 C21 2.31 21 4.62 21 7 C17.59568053 9.26954631 15.83475798 9.36549949 11.8125 9.625 C10.72582031 9.69976562 9.63914062 9.77453125 8.51953125 9.8515625 C7.27236328 9.92503906 7.27236328 9.92503906 6 10 C8.97 10.33 11.94 10.66 15 11 C15 11.33 15 11.66 15 12 C11.37 12 7.74 12 4 12 C4 10.35 4 8.7 4 7 C8.95 6.67 13.9 6.34 19 6 C18.67 4.68 18.34 3.36 18 2 C12.06 1.67 6.12 1.34 0 1 C0 0.67 0 0.34 0 0 Z " fill="#241500" transform="translate(42,32)"/>
<path d="M0 0 C1.32 0 2.64 0 4 0 C4 0.99 4 1.98 4 3 C4.99 3 5.98 3 7 3 C7 5.31 7 7.62 7 10 C5.68 10 4.36 10 3 10 C3 12.31 3 14.62 3 17 C2.34 17 1.68 17 1 17 C0.09586327 13.16275828 -0.10576898 9.62497726 -0.0625 5.6875 C-0.05347656 4.61886719 -0.04445313 3.55023438 -0.03515625 2.44921875 C-0.02355469 1.64097656 -0.01195312 0.83273438 0 0 Z " fill="#75B50F" transform="translate(10,6)"/>
<path d="M0 0 C2.64 0 5.28 0 8 0 C7.67 1.32 7.34 2.64 7 4 C7 3.34 7 2.68 7 2 C5.35 2 3.7 2 2 2 C2.33 3.98 2.66 5.96 3 8 C5.97 8 8.94 8 12 8 C12 8.33 12 8.66 12 9 C9.69 9 7.38 9 5 9 C5 10.65 5 12.3 5 14 C5.99 14 6.98 14 8 14 C8 14.66 8 15.32 8 16 C5.36 16 2.72 16 0 16 C0 10.72 0 5.44 0 0 Z " fill="#241600" transform="translate(12,39)"/>
<path d="M0 0 C0.66 1.32 1.32 2.64 2 4 C1 5 1 5 -2.37890625 5.09765625 C-3.77347077 5.09098369 -5.16801743 5.07902532 -6.5625 5.0625 C-7.27341797 5.05798828 -7.98433594 5.05347656 -8.71679688 5.04882812 C-10.47790013 5.03700864 -12.23896036 5.01907263 -14 5 C-14 6.65 -14 8.3 -14 10 C-7.565 9.505 -7.565 9.505 -1 9 C-1 11.31 -1 13.62 -1 16 C-3.52475462 17.26237731 -5.31200466 17.09856404 -8.125 17.0625 C-9.03507812 17.05347656 -9.94515625 17.04445313 -10.8828125 17.03515625 C-11.93082031 17.01775391 -11.93082031 17.01775391 -13 17 C-13.33 16.34 -13.66 15.68 -14 15 C-10.37 15 -6.74 15 -3 15 C-3 13.68 -3 12.36 -3 11 C-6.96 11 -10.92 11 -15 11 C-15 8.69 -15 6.38 -15 4 C-10.05 4 -5.1 4 0 4 C0 2.68 0 1.36 0 0 Z " fill="#473008" transform="translate(60,34)"/>
<path d="M0 0 C2 2 2 2 2.1953125 5.2578125 C2.16050781 7.17207031 2.16050781 7.17207031 2.125 9.125 C2.10695313 10.40632813 2.08890625 11.68765625 2.0703125 13.0078125 C2.04710937 13.99523438 2.02390625 14.98265625 2 16 C1.01 16 0.02 16 -1 16 C-1.33 17.32 -1.66 18.64 -2 20 C-2.66 19.67 -3.32 19.34 -4 19 C-4 15.7 -4 12.4 -4 9 C-6.64 9 -9.28 9 -12 9 C-12 8.67 -12 8.34 -12 8 C-10.52168779 7.80587819 -9.04230684 7.61987869 -7.5625 7.4375 C-6.73878906 7.33308594 -5.91507813 7.22867188 -5.06640625 7.12109375 C-4.04353516 7.06115234 -4.04353516 7.06115234 -3 7 C-2 8 -2 8 -1.9375 11.0625 C-1.958125 12.031875 -1.97875 13.00125 -2 14 C-1.34 14 -0.68 14 0 14 C0 9.38 0 4.76 0 0 Z " fill="#332102" transform="translate(29,40)"/>
<path d="M0 0 C2.31 0 4.62 0 7 0 C7 2.31 7 4.62 7 7 C6.01 7 5.02 7 4 7 C4 5.02 4 3.04 4 1 C3.01 1 2.02 1 1 1 C1 5.29 1 9.58 1 14 C-0.32 14 -1.64 14 -3 14 C-3 10.04 -3 6.08 -3 2 C-2.67 2 -2.34 2 -2 2 C-2 3.65 -2 5.3 -2 7 C-1.34 7 -0.68 7 0 7 C0 4.69 0 2.38 0 0 Z " fill="#4A590B" transform="translate(13,16)"/>
<path d="M0 0 C0.99 0 1.98 0 3 0 C3 5.28 3 10.56 3 16 C2.34 16 1.68 16 1 16 C1 14.02 1 12.04 1 10 C-0.32 10 -1.64 10 -3 10 C-3 7.69 -3 5.38 -3 3 C-2.01 3 -1.02 3 0 3 C0 2.01 0 1.02 0 0 Z " fill="#75B50E" transform="translate(30,6)"/>
<path d="M0 0 C0.99 0 1.98 0 3 0 C3 5.94 3 11.88 3 18 C2.01 18 1.02 18 0 18 C0 12.06 0 6.12 0 0 Z " fill="#F0BC3D" transform="translate(6,38)"/>
<path d="M0 0 C0.33 1.32 0.66 2.64 1 4 C-2.96 4 -6.92 4 -11 4 C-11 7.3 -11 10.6 -11 14 C-11.99 14 -12.98 14 -14 14 C-14 9.71 -14 5.42 -14 1 C-13.01 1.33 -12.02 1.66 -11 2 C-9.10787263 2.22179785 -7.21115528 2.40614015 -5.3125 2.5625 C-4.31863281 2.64628906 -3.32476562 2.73007812 -2.30078125 2.81640625 C-1.16189453 2.90728516 -1.16189453 2.90728516 0 3 C0 2.01 0 1.02 0 0 Z " fill="#E4A829" transform="translate(56,45)"/>
<path d="M0 0 C5.94 0 11.88 0 18 0 C18 0.99 18 1.98 18 3 C15.75006641 3.02707139 13.50003905 3.04642829 11.25 3.0625 C9.99703125 3.07410156 8.7440625 3.08570313 7.453125 3.09765625 C4.71463499 3.02021027 2.58119707 2.82780815 0 2 C0 1.34 0 0.68 0 0 Z " fill="#F9D277" transform="translate(42,34)"/>
<path d="M0 0 C4.62 0 9.24 0 14 0 C14 0.33 14 0.66 14 1 C8.555 1.495 8.555 1.495 3 2 C2.67 2.99 2.34 3.98 2 5 C0.68 5 -0.64 5 -2 5 C-2 11.27 -2 17.54 -2 24 C-2.33 24 -2.66 24 -3 24 C-3 17.4 -3 10.8 -3 4 C-1.68 4 -0.36 4 1 4 C0.67 2.68 0.34 1.36 0 0 Z " fill="#1B0F00" transform="translate(7,32)"/>
<path d="M0 0 C3.63 0 7.26 0 11 0 C11 1.32 11 2.64 11 4 C7.37 4 3.74 4 0 4 C0 2.68 0 1.36 0 0 Z " fill="#E49E07" transform="translate(28,56)"/>
<path d="M0 0 C0.33 0 0.66 0 1 0 C1 2.31 1 4.62 1 7 C1.66 7 2.32 7 3 7 C3 4.69 3 2.38 3 0 C3.33 0 3.66 0 4 0 C4 4.62 4 9.24 4 14 C2.68 14 1.36 14 0 14 C0 9.38 0 4.76 0 0 Z " fill="#456B0C" transform="translate(20,16)"/>
<path d="M0 0 C6.93 0.495 6.93 0.495 14 1 C14 1.99 14 2.98 14 4 C9.71 4 5.42 4 1 4 C0.67 2.68 0.34 1.36 0 0 Z " fill="#F9BD40" transform="translate(42,44)"/>
<path d="M0 0 C0.33 0 0.66 0 1 0 C1.33 3.63 1.66 7.26 2 11 C2.66 11 3.32 11 4 11 C4 12.98 4 14.96 4 17 C2.68 17 1.36 17 0 17 C0 11.39 0 5.78 0 0 Z " fill="#49780C" transform="translate(36,9)"/>
<path d="M0 0 C0.33 0 0.66 0 1 0 C1 6.27 1 12.54 1 19 C2.32 19 3.64 19 5 19 C4.67 20.32 4.34 21.64 4 23 C3.67 22.34 3.34 21.68 3 21 C1.68 21 0.36 21 -1 21 C-0.67 14.07 -0.34 7.14 0 0 Z " fill="#442D07" transform="translate(5,37)"/>
<path d="M0 0 C3.3 0 6.6 0 10 0 C10 0.99 10 1.98 10 3 C6.7 3 3.4 3 0 3 C0 2.01 0 1.02 0 0 Z " fill="#F9D478" transform="translate(10,34)"/>
<path d="M0 0 C3.3 0 6.6 0 10 0 C10 0.99 10 1.98 10 3 C6.7 3 3.4 3 0 3 C0 2.01 0 1.02 0 0 Z " fill="#378608" transform="translate(40,26)"/>
<path d="M0 0 C2.05078125 0.03255208 4.1015625 0.06510417 6.15234375 0.09765625 C6.15234375 1.74765625 6.15234375 3.39765625 6.15234375 5.09765625 C5.82234375 4.10765625 5.49234375 3.11765625 5.15234375 2.09765625 C3.83234375 2.09765625 2.51234375 2.09765625 1.15234375 2.09765625 C1.15234375 3.08765625 1.15234375 4.07765625 1.15234375 5.09765625 C0.16234375 5.09765625 -0.82765625 5.09765625 -1.84765625 5.09765625 C-2.41015625 3.16015625 -2.41015625 3.16015625 -2.84765625 1.09765625 C-1.84765625 0.09765625 -1.84765625 0.09765625 0 0 Z " fill="#2F0B0C" transform="translate(48.84765625,20.90234375)"/>
<path d="M0 0 C3.3 0 6.6 0 10 0 C10 0.99 10 1.98 10 3 C6.7 3 3.4 3 0 3 C0 2.01 0 1.02 0 0 Z " fill="#89C911" transform="translate(40,6)"/>
<path d="M0 0 C2.31 0 4.62 0 7 0 C7 2.31 7 4.62 7 7 C6.38125 6.2884375 6.38125 6.2884375 5.75 5.5625 C3.817815 3.83733482 2.51807725 3.43415125 0 3 C0 2.01 0 1.02 0 0 Z " fill="#F9B828" transform="translate(17,49)"/>
<path d="M0 0 C3.3 0 6.6 0 10 0 C10 0.99 10 1.98 10 3 C6.7 3 3.4 3 0 3 C0 2.01 0 1.02 0 0 Z " fill="#F9D378" transform="translate(28,34)"/>
<path d="M0 0 C2.97 0.495 2.97 0.495 6 1 C4.68 1.33 3.36 1.66 2 2 C2 2.99 2 3.98 2 5 C1.01 5 0.02 5 -1 5 C-1 7.31 -1 9.62 -1 12 C-1.33 12 -1.66 12 -2 12 C-2.33 9.03 -2.66 6.06 -3 3 C-2.01 2.67 -1.02 2.34 0 2 C0 1.34 0 0.68 0 0 Z " fill="#32150C" transform="translate(28,4)"/>
<path d="M0 0 C0.33 1.65 0.66 3.3 1 5 C0.01 5 -0.98 5 -2 5 C-2 4.01 -2 3.02 -2 2 C-5.63 2 -9.26 2 -13 2 C-13 1.67 -13 1.34 -13 1 C-11.20843648 0.83222817 -9.4167455 0.66581706 -7.625 0.5 C-6.62726562 0.4071875 -5.62953125 0.314375 -4.6015625 0.21875 C-2 0 -2 0 0 0 Z " fill="#483313" transform="translate(23,32)"/>
<path d="M0 0 C0.66 0 1.32 0 2 0 C2.22162329 1.62324086 2.42689803 3.248721 2.625 4.875 C2.74101563 5.77992187 2.85703125 6.68484375 2.9765625 7.6171875 C2.98429687 8.40351563 2.99203125 9.18984375 3 10 C2.34 10.66 1.68 11.32 1 12 C-0.26237731 9.47524538 -0.09856404 7.68799534 -0.0625 4.875 C-0.05347656 3.96492187 -0.04445312 3.05484375 -0.03515625 2.1171875 C-0.02355469 1.41851562 -0.01195312 0.71984375 0 0 Z " fill="#79C90E" transform="translate(37,10)"/>
<path d="M0 0 C0.66 0 1.32 0 2 0 C2 2.97 2 5.94 2 9 C1.34 9 0.68 9 0 9 C0 7.02 0 5.04 0 3 C-1.32 2.67 -2.64 2.34 -4 2 C-2.68 2 -1.36 2 0 2 C0 1.34 0 0.68 0 0 Z " fill="#6DB90D" transform="translate(31,13)"/>
<path d="M0 0 C0.99 0 1.98 0 3 0 C3 2.31 3 4.62 3 7 C2.01 7 1.02 7 0 7 C0 4.69 0 2.38 0 0 Z " fill="#62A70F" transform="translate(17,16)"/>
<path d="M0 0 C0.33 0 0.66 0 1 0 C1 1.65 1 3.3 1 5 C1.66 5 2.32 5 3 5 C3 6.98 3 8.96 3 11 C2.34 11 1.68 11 1 11 C-0.20272819 8.59454362 -0.10071472 7.05003047 -0.0625 4.375 C-0.05347656 3.55773437 -0.04445313 2.74046875 -0.03515625 1.8984375 C-0.02355469 1.27195312 -0.01195312 0.64546875 0 0 Z " fill="#48920C" transform="translate(10,18)"/>
<path d="M0 0 C0.99 0 1.98 0 3 0 C3 2.31 3 4.62 3 7 C2.01 7 1.02 7 0 7 C0 4.69 0 2.38 0 0 Z " fill="#66A80D" transform="translate(24,16)"/>
<path d="M0 0 C1.32 0.33 2.64 0.66 4 1 C4 2.32 4 3.64 4 5 C2.68 5 1.36 5 0 5 C0 3.35 0 1.7 0 0 Z " fill="#92D112" transform="translate(27,10)"/>
<path d="M0 0 C0.99 0 1.98 0 3 0 C3 1.98 3 3.96 3 6 C2.01 6 1.02 6 0 6 C0 4.02 0 2.04 0 0 Z " fill="#FEB511" transform="translate(42,53)"/>
</svg>
