<?xml version="1.0" encoding="UTF-8"?>
<!-- Created by Svg.la -->
<svg version="1.1" xmlns="http://www.w3.org/2000/svg" width="300" height="300">
<path d="M0 0 C6.62 -0.148 13.239 -0.257 19.861 -0.33 C22.113 -0.36 24.366 -0.401 26.618 -0.453 C29.855 -0.525 33.09 -0.559 36.328 -0.586 C37.839 -0.632 37.839 -0.632 39.381 -0.68 C42.052 -0.681 44.402 -0.624 47 0 C50.47 3.742 51.52 6.961 52 12 C54.64 12 57.28 12 60 12 C60.99 13.98 60.99 13.98 62 16 C62.33 10.72 62.66 5.44 63 0 C78.18 0 93.36 0 109 0 C109.495 1.98 109.495 1.98 110 4 C110.66 2.68 111.32 1.36 112 0 C135.76 0 159.52 0 184 0 C184 21 184 21 180.32 25.289 C171.811 28.63 161.846 27.619 152.875 27.375 C150.945 27.345 149.016 27.317 147.086 27.293 C142.389 27.227 137.695 27.124 133 27 C133 30.63 133 34.26 133 38 C145.54 38 158.08 38 171 38 C171 45.26 171 52.52 171 60 C166.217 60.797 162.21 61.117 157.414 61.098 C155.487 61.094 155.487 61.094 153.522 61.09 C151.906 61.081 150.29 61.072 148.625 61.062 C143.469 61.042 138.312 61.021 133 61 C133 72.88 133 84.76 133 97 C89.77 97 46.54 97 2 97 C1.67 93.04 1.34 89.08 1 85 C-3.29 85 -7.58 85 -12 85 C-12.023 75.63 -12.041 66.259 -12.052 56.889 C-12.057 52.538 -12.064 48.188 -12.075 43.837 C-12.086 39.642 -12.092 35.447 -12.095 31.252 C-12.097 29.648 -12.1 28.044 -12.106 26.44 C-12.113 24.201 -12.114 21.962 -12.114 19.723 C-12.116 18.446 -12.118 17.169 -12.12 15.854 C-12 13 -12 13 -11 12 C-9.151 11.766 -7.295 11.587 -5.438 11.438 C-2.746 11.221 -2.746 11.221 0 11 C0 7.37 0 3.74 0 0 Z M63 23 C63 27.95 63 32.9 63 38 C59.728 37.913 56.459 37.806 53.188 37.688 C52.259 37.665 51.33 37.642 50.373 37.619 C49.48 37.584 48.588 37.548 47.668 37.512 C46.435 37.472 46.435 37.472 45.177 37.432 C43 37 43 37 41.271 35.906 C40 34 40 34 39 27 C31.41 27 23.82 27 16 27 C16.33 43.17 16.66 59.34 17 76 C24.26 76 31.52 76 39 76 C39 75.01 39 74.02 39 73 C34.71 72.67 30.42 72.34 26 72 C26 65.07 26 58.14 26 51 C30.806 51.097 35.611 51.199 40.417 51.317 C42.052 51.356 43.687 51.391 45.323 51.422 C47.671 51.467 50.019 51.525 52.367 51.586 C53.467 51.603 53.467 51.603 54.59 51.621 C59.772 51.772 59.772 51.772 62 54 C62.319 56.247 62.319 56.247 62.414 59.008 C62.472 60.487 62.472 60.487 62.531 61.996 C62.562 63.029 62.593 64.061 62.625 65.125 C62.683 66.685 62.683 66.685 62.742 68.277 C62.837 70.851 62.919 73.426 63 76 C66.96 76 70.92 76 75 76 C75 59.83 75 43.66 75 27 C71.37 27 67.74 27 64 27 C63.505 25.02 63.505 25.02 63 23 Z M108 22 C107.67 23.65 107.34 25.3 107 27 C103.7 27 100.4 27 97 27 C97 43.17 97 59.34 97 76 C100.96 76.33 104.92 76.66 109 77 C109 58.85 109 40.7 109 22 C108.67 22 108.34 22 108 22 Z " fill="#2D1D00" transform="translate(67,161)"/>
<path d="M0 0 C3.541 -0.204 7.08 -0.328 10.625 -0.438 C12.124 -0.525 12.124 -0.525 13.652 -0.615 C20.913 -0.784 20.913 -0.784 24.037 1.469 C26.786 4.539 27.92 6.268 28.375 10.438 C28.251 11.283 28.127 12.129 28 13 C30.31 13 32.62 13 35 13 C35.66 14.32 36.32 15.64 37 17 C37.66 17 38.32 17 39 17 C40.2 19.401 40.115 20.894 40.098 23.57 C40.094 24.466 40.091 25.362 40.088 26.285 C40.075 27.691 40.075 27.691 40.062 29.125 C40.058 30.07 40.053 31.015 40.049 31.988 C40.037 34.326 40.021 36.663 40 39 C41.279 38.969 42.558 38.938 43.875 38.906 C47.75 38.812 47.75 38.812 50 40.5 C50.495 41.243 50.495 41.243 51 42 C51.33 41.01 51.66 40.02 52 39 C56.29 39 60.58 39 65 39 C65 30.42 65 21.84 65 13 C69.29 13 73.58 13 78 13 C78 8.71 78 4.42 78 0 C85.26 0 92.52 0 100 0 C100.495 8.415 100.495 8.415 101 17 C101.33 15.68 101.66 14.36 102 13 C105.3 13 108.6 13 112 13 C111.938 12.154 111.876 11.309 111.812 10.438 C112 7 112 7 115 0 C130.84 0 146.68 0 163 0 C163 4.29 163 8.58 163 13 C167.29 13 171.58 13 176 13 C176 20.26 176 27.52 176 35 C167 39.5 167 39.5 162.844 39.391 C161.967 39.378 161.091 39.365 160.188 39.352 C159.301 39.318 158.414 39.285 157.5 39.25 C156.582 39.232 155.664 39.214 154.719 39.195 C152.479 39.149 150.239 39.077 148 39 C148 35.04 148 31.08 148 27 C140.08 27 132.16 27 124 27 C124 43.83 124 60.66 124 78 C131.59 78 139.18 78 147 78 C147.33 74.04 147.66 70.08 148 66 C151.826 65.235 154.706 64.881 158.52 64.902 C159.541 64.906 160.563 64.909 161.615 64.912 C162.67 64.92 163.725 64.929 164.812 64.938 C165.887 64.942 166.961 64.947 168.068 64.951 C170.712 64.963 173.356 64.979 176 65 C176.06 72.418 175.767 79.618 175 87 C170.71 87 166.42 87 162 87 C162 90.96 162 94.92 162 99 C155.201 99.025 148.401 99.043 141.602 99.055 C139.288 99.06 136.973 99.067 134.659 99.075 C131.338 99.088 128.016 99.093 124.695 99.098 C123.136 99.105 123.136 99.105 121.545 99.113 C120.584 99.113 119.623 99.113 118.633 99.114 C117.785 99.116 116.937 99.118 116.063 99.12 C114 99 114 99 112 98 C112 94.37 112 90.74 112 87 C109.556 87.031 109.556 87.031 107.062 87.062 C105.375 87.084 103.686 87.072 102 87 C101.67 86.67 101.34 86.34 101 86 C100.67 90.29 100.34 94.58 100 99 C92.74 99 85.48 99 78 99 C78 83.16 78 67.32 78 51 C77.01 51 76.02 51 75 51 C75.036 51.692 75.071 52.383 75.108 53.095 C75.265 56.209 75.414 59.323 75.562 62.438 C75.647 64.07 75.647 64.07 75.732 65.736 C75.781 66.771 75.829 67.805 75.879 68.871 C75.95 70.309 75.95 70.309 76.022 71.775 C76 74 76 74 75 75 C71.37 75 67.74 75 64 75 C64 82.59 64 90.18 64 98 C61.443 99.279 59.633 99.113 56.773 99.098 C55.845 99.095 54.916 99.093 53.958 99.09 C52.776 99.081 51.593 99.072 50.375 99.062 C44.744 99.032 44.744 99.032 39 99 C39 91.08 39 83.16 39 75 C35.7 74.67 32.4 74.34 29 74 C29 81.92 29 89.84 29 98 C25.822 99.059 23.574 99.115 20.238 99.098 C19.12 99.094 18.002 99.091 16.85 99.088 C15.682 99.08 14.515 99.071 13.312 99.062 C12.134 99.058 10.955 99.053 9.74 99.049 C6.827 99.037 3.913 99.021 1 99 C-0.253 79.273 -0.119 59.551 -0.069 39.795 C-0.058 35.296 -0.054 30.796 -0.049 26.297 C-0.038 17.531 -0.021 8.766 0 0 Z " fill="#2E080C" transform="translate(62,51)"/>
<path d="M0 0 C4.29 0 8.58 0 13 0 C13.023 11.848 13.041 23.695 13.052 35.543 C13.057 41.044 13.064 46.544 13.075 52.045 C13.086 57.349 13.092 62.653 13.095 67.957 C13.097 69.985 13.1 72.013 13.106 74.041 C13.113 76.872 13.114 79.702 13.114 82.533 C13.117 83.38 13.121 84.228 13.124 85.101 C13.114 90.886 13.114 90.886 12 92 C7.71 92 3.42 92 -1 92 C-1 75.17 -1 58.34 -1 41 C-4.63 41.33 -8.26 41.66 -12 42 C-12.33 49.92 -12.66 57.84 -13 66 C-17.29 66 -21.58 66 -26 66 C-26 74.25 -26 82.5 -26 91 C-30.29 91 -34.58 91 -39 91 C-39 82.75 -39 74.5 -39 66 C-43.29 66 -47.58 66 -52 66 C-52 57.42 -52 48.84 -52 40 C-47.38 40 -42.76 40 -38 40 C-38 48.25 -38 56.5 -38 65 C-34.04 65 -30.08 65 -26 65 C-26 56.75 -26 48.5 -26 40 C-22.04 40 -18.08 40 -14 40 C-14 31.42 -14 22.84 -14 14 C-9.38 14 -4.76 14 0 14 C0 9.38 0 4.76 0 0 Z " fill="#53800E" transform="translate(145,55)"/>
<path d="M0 0 C20.79 0 41.58 0 63 0 C63 4.29 63 8.58 63 13 C46.17 13 29.34 13 12 13 C12 21.58 12 30.16 12 39 C24.54 39 37.08 39 50 39 C50 43.29 50 47.58 50 52 C37.46 52 24.92 52 12 52 C12 64.21 12 76.42 12 89 C8.04 89 4.08 89 0 89 C0 59.63 0 30.26 0 0 Z " fill="#FDBE44" transform="translate(183,165)"/>
<path d="M0 0 C12.87 0 25.74 0 39 0 C39 4.29 39 8.58 39 13 C43.29 13 47.58 13 52 13 C52.726 25.093 52.726 25.093 49.75 28.812 C44.347 30.523 39.659 30.252 34 30 C34 26.04 34 22.08 34 18 C22.78 18 11.56 18 0 18 C0 37.47 0 56.94 0 77 C-4.29 77 -8.58 77 -13 77 C-13 55.88 -13 34.76 -13 13 C-8.71 13 -4.42 13 0 13 C0 8.71 0 4.42 0 0 Z " fill="#79BB0F" transform="translate(181,56)"/>
<path d="M0 0 C12.54 0 25.08 0 38 0 C38 4.62 38 9.24 38 14 C34.04 14 30.08 14 26 14 C25.67 34.79 25.34 55.58 25 77 C29.29 77 33.58 77 38 77 C38 80.96 38 84.92 38 89 C25.46 89 12.92 89 0 89 C0 85.04 0 81.08 0 77 C4.29 77 8.58 77 13 77 C13 55.88 13 34.76 13 13 C8.71 13 4.42 13 0 13 C0 8.71 0 4.42 0 0 Z " fill="#FEC14E" transform="translate(134,165)"/>
<path d="M0 0 C1.603 0 3.206 0.006 4.808 0.016 C5.65 0.017 6.492 0.019 7.36 0.02 C10.06 0.026 12.76 0.038 15.461 0.051 C17.287 0.056 19.113 0.061 20.939 0.065 C25.426 0.076 29.912 0.093 34.398 0.114 C34.398 4.404 34.398 8.694 34.398 13.114 C38.358 13.114 42.318 13.114 46.398 13.114 C46.398 17.404 46.398 21.694 46.398 26.114 C42.108 26.114 37.818 26.114 33.398 26.114 C33.398 22.154 33.398 18.194 33.398 14.114 C21.188 14.114 8.978 14.114 -3.602 14.114 C-3.602 34.574 -3.602 55.034 -3.602 76.114 C-7.562 76.114 -11.522 76.114 -15.602 76.114 C-16.963 55.131 -16.699 34.129 -16.602 13.114 C-12.642 13.114 -8.682 13.114 -4.602 13.114 C-4.622 11.154 -4.643 9.195 -4.664 7.176 C-4.686 5.155 -4.674 3.133 -4.602 1.114 C-3.602 0.114 -3.602 0.114 0 0 Z " fill="#FDBF47" transform="translate(76.601806640625,164.886474609375)"/>
<path d="M0 0 C4.29 0 8.58 0 13 0 C13 4.62 13 9.24 13 14 C17.29 14 21.58 14 26 14 C26 22.58 26 31.16 26 40 C21.71 40 17.42 40 13 40 C13 56.83 13 73.66 13 91 C9.04 91 5.08 91 1 91 C0.181 60.661 -0.137 30.35 0 0 Z " fill="#77BB0F" transform="translate(67,55)"/>
<path d="M0 0 C8.25 0 16.5 0 25 0 C25 12.21 25 24.42 25 37 C8.83 37 -7.34 37 -24 37 C-24 33.04 -24 29.08 -24 25 C-11.79 25 0.42 25 13 25 C13 20.71 13 16.42 13 12 C8.71 12 4.42 12 0 12 C0 8.04 0 4.08 0 0 Z " fill="#FEAE0B" transform="translate(98,217)"/>
<path d="M0 0 C20.46 0 40.92 0 62 0 C62 3.96 62 7.92 62 12 C45.17 12 28.34 12 11 12 C11 14.31 11 16.62 11 19 C10.67 17.68 10.34 16.36 10 15 C7.03 15 4.06 15 1 15 C0.67 16.32 0.34 17.64 0 19 C0 12.73 0 6.46 0 0 Z " fill="#FECD71" transform="translate(184,166)"/>
<path d="M0 0 C8.91 0 17.82 0 27 0 C27.33 0.99 27.66 1.98 28 3 C28.99 3.33 29.98 3.66 31 4 C31.027 6.979 31.047 9.958 31.062 12.938 C31.071 13.788 31.079 14.638 31.088 15.514 C31.091 16.323 31.094 17.131 31.098 17.965 C31.103 18.714 31.108 19.463 31.114 20.234 C31 22 31 22 30 23 C27 23.125 27 23.125 24 23 C23 22 23 22 22.902 18.84 C22.914 17.552 22.926 16.264 22.938 14.938 C22.947 13.647 22.956 12.357 22.965 11.027 C22.976 10.028 22.988 9.029 23 8 C21.68 8 20.36 8 19 8 C19.012 8.999 19.023 9.998 19.035 11.027 C19.044 12.318 19.053 13.608 19.062 14.938 C19.074 16.225 19.086 17.513 19.098 18.84 C19 22 19 22 18 23 C16.657 23.086 15.31 23.107 13.965 23.098 C13.156 23.094 12.347 23.091 11.514 23.088 C10.664 23.08 9.813 23.071 8.938 23.062 C8.083 23.058 7.229 23.053 6.35 23.049 C4.233 23.037 2.117 23.019 0 23 C-0.33 22.01 -0.66 21.02 -1 20 C-1.99 19.67 -2.98 19.34 -4 19 C-4 14.05 -4 9.1 -4 4 C-3.01 3.67 -2.02 3.34 -1 3 C-0.67 2.01 -0.34 1.02 0 0 Z M4 8 C4 10.31 4 12.62 4 15 C6.31 15 8.62 15 11 15 C11 12.69 11 10.38 11 8 C8.69 8 6.38 8 4 8 Z " fill="#000000" transform="translate(242,237)"/>
<path d="M0 0 C3.96 0 7.92 0 12 0 C12 8.91 12 17.82 12 27 C9.36 27 6.72 27 4 27 C4 29.97 4 32.94 4 36 C-1.61 36 -7.22 36 -13 36 C-13 28.41 -13 20.82 -13 13 C-8.71 13 -4.42 13 0 13 C0 8.71 0 4.42 0 0 Z " fill="#78C00F" transform="translate(145,56)"/>
<path d="M0 0 C0.33 0 0.66 0 1 0 C1 7.92 1 15.84 1 24 C5.29 24 9.58 24 14 24 C14 27.96 14 31.92 14 36 C1.46 36 -11.08 36 -24 36 C-24 32.04 -24 28.08 -24 24 C-19.71 24 -15.42 24 -11 24 C-11 19.38 -11 14.76 -11 10 C-7.7 10 -4.4 10 -1 10 C-0.67 6.7 -0.34 3.4 0 0 Z " fill="#FFAD09" transform="translate(158,218)"/>
<path d="M0 0 C0.941 0 1.882 0 2.851 0 C3.869 0.005 4.886 0.011 5.935 0.016 C7.496 0.018 7.496 0.018 9.088 0.02 C12.42 0.026 15.752 0.038 19.083 0.051 C21.339 0.056 23.594 0.061 25.849 0.065 C31.386 0.076 36.922 0.092 42.458 0.114 C42.953 1.599 42.953 1.599 43.458 3.114 C30.918 3.114 18.378 3.114 5.458 3.114 C5.458 15.324 5.458 27.534 5.458 40.114 C1.498 40.114 -2.462 40.114 -6.542 40.114 C-6.542 27.244 -6.542 14.374 -6.542 1.114 C-4.146 -0.084 -2.674 -0.007 0 0 Z " fill="#FEB628" transform="translate(189.54150390625,213.886474609375)"/>
<path d="M0 0 C12.21 0 24.42 0 37 0 C37 1.32 37 2.64 37 4 C26.77 4 16.54 4 6 4 C6 23.14 6 42.28 6 62 C16.23 62 26.46 62 37 62 C37 58.37 37 54.74 37 51 C33.04 51 29.08 51 25 51 C25 50.67 25 50.34 25 50 C29.29 50 33.58 50 38 50 C38 54.29 38 58.58 38 63 C25.79 63 13.58 63 1 63 C1 66.96 1 70.92 1 75 C0.67 75 0.34 75 0 75 C0 71.04 0 67.08 0 63 C-3.96 63 -7.92 63 -12 63 C-12 62.67 -12 62.34 -12 62 C-8.04 62 -4.08 62 0 62 C0 41.54 0 21.08 0 0 Z " fill="#614001" transform="translate(73,179)"/>
<path d="M0 0 C12.54 0 25.08 0 38 0 C38 4.29 38 8.58 38 13 C25.46 13 12.92 13 0 13 C0 8.71 0 4.42 0 0 Z " fill="#2E8904" transform="translate(181,133)"/>
<path d="M0 0 C4.29 0 8.58 0 13 0 C13.023 11.848 13.041 23.695 13.052 35.543 C13.057 41.044 13.064 46.544 13.075 52.045 C13.086 57.349 13.092 62.653 13.095 67.957 C13.097 69.985 13.1 72.013 13.106 74.041 C13.113 76.872 13.114 79.702 13.114 82.533 C13.117 83.38 13.121 84.228 13.124 85.101 C13.114 90.886 13.114 90.886 12 92 C7.71 92 3.42 92 -1 92 C-1 75.83 -1 59.66 -1 43 C-0.67 43 -0.34 43 0 43 C0 49.93 0 56.86 0 64 C3.96 64 7.92 64 12 64 C12 43.21 12 22.42 12 1 C8.04 1 4.08 1 0 1 C0 0.67 0 0.34 0 0 Z " fill="#45690D" transform="translate(145,55)"/>
<path d="M0 0 C12.21 0 24.42 0 37 0 C37 3.96 37 7.92 37 12 C32.71 12 28.42 12 24 12 C23.67 12.66 23.34 13.32 23 14 C23 13.34 23 12.68 23 12 C15.41 12 7.82 12 0 12 C0 8.04 0 4.08 0 0 Z " fill="#FECE75" transform="translate(134,166)"/>
<path d="M0 0 C12.21 0 24.42 0 37 0 C37 3.96 37 7.92 37 12 C24.79 12 12.58 12 0 12 C0 8.04 0 4.08 0 0 Z " fill="#FECD72" transform="translate(73,166)"/>
<path d="M0 0 C16.83 0 33.66 0 51 0 C51 13 51 13 48.75 15.812 C43.347 17.523 38.659 17.252 33 17 C33 13.04 33 9.08 33 5 C22.11 5 11.22 5 0 5 C0 3.35 0 1.7 0 0 Z " fill="#395D09" transform="translate(182,69)"/>
<path d="M0 0 C2.64 0 5.28 0 8 0 C8 11.88 8 23.76 8 36 C4.04 36 0.08 36 -4 36 C-4.33 28.08 -4.66 20.16 -5 12 C-8.96 12 -12.92 12 -17 12 C-17 11.01 -17 10.02 -17 9 C-11.39 9 -5.78 9 0 9 C0 6.03 0 3.06 0 0 Z " fill="#67AE0D" transform="translate(149,83)"/>
<path d="M0 0 C0.918 -0.003 1.835 -0.006 2.78 -0.009 C3.768 -0.002 4.755 0.005 5.773 0.012 C6.787 0.013 7.802 0.013 8.847 0.014 C10.99 0.017 13.134 0.025 15.277 0.037 C18.572 0.055 21.865 0.058 25.16 0.057 C27.239 0.062 29.319 0.068 31.398 0.075 C32.39 0.076 33.381 0.077 34.403 0.078 C35.77 0.088 35.77 0.088 37.164 0.098 C37.97 0.101 38.776 0.105 39.606 0.109 C41.453 0.243 41.453 0.243 42.453 1.243 C42.453 3.553 42.453 5.863 42.453 8.243 C26.613 7.913 10.773 7.583 -5.547 7.243 C-5.877 7.903 -6.207 8.563 -6.547 9.243 C-7.547 8.243 -7.547 8.243 -7.797 5.305 C-7.715 4.295 -7.632 3.284 -7.547 2.243 C-4.377 0.13 -3.622 -0.006 0 0 Z " fill="#FEBC3D" transform="translate(190.54736328125,206.757080078125)"/>
<path d="M0 0 C4.29 0 8.58 0 13 0 C13 8.25 13 16.5 13 25 C8.71 25 4.42 25 0 25 C0 16.75 0 8.5 0 0 Z " fill="#4E950F" transform="translate(106,121)"/>
<path d="M0 0 C3.96 0 7.92 0 12 0 C12 8.91 12 17.82 12 27 C8.04 27 4.08 27 0 27 C0 18.09 0 9.18 0 0 Z " fill="#4E970F" transform="translate(68,119)"/>
<path d="M0 0 C0.33 0 0.66 0 1 0 C1 16.83 1 33.66 1 51 C-2.96 51 -6.92 51 -11 51 C-11.653 38.321 -12.164 25.697 -12 13 C-11.67 13 -11.34 13 -11 13 C-11 17.95 -11 22.9 -11 28 C-7.37 28 -3.74 28 0 28 C0 18.76 0 9.52 0 0 Z " fill="#FFB626" transform="translate(72,190)"/>
<path d="M0 0 C3.96 0 7.92 0 12 0 C12 8.25 12 16.5 12 25 C8.04 25 4.08 25 0 25 C0 16.75 0 8.5 0 0 Z " fill="#67B00D" transform="translate(119,95)"/>
<path d="M0 0 C1.603 0 3.206 0.006 4.808 0.016 C5.65 0.017 6.492 0.019 7.36 0.02 C10.06 0.026 12.76 0.038 15.461 0.051 C17.287 0.056 19.113 0.061 20.939 0.065 C25.426 0.076 29.912 0.093 34.398 0.114 C34.398 4.404 34.398 8.694 34.398 13.114 C38.358 13.114 42.318 13.114 46.398 13.114 C46.398 17.404 46.398 21.694 46.398 26.114 C42.108 26.114 37.818 26.114 33.398 26.114 C33.398 22.154 33.398 18.194 33.398 14.114 C21.188 14.114 8.978 14.114 -3.602 14.114 C-3.602 17.744 -3.602 21.374 -3.602 25.114 C-3.932 25.114 -4.262 25.114 -4.602 25.114 C-4.602 21.484 -4.602 17.854 -4.602 14.114 C-8.562 14.114 -12.522 14.114 -16.602 14.114 C-16.602 13.784 -16.602 13.454 -16.602 13.114 C-12.642 13.114 -8.682 13.114 -4.602 13.114 C-4.622 11.154 -4.643 9.195 -4.664 7.176 C-4.686 5.155 -4.674 3.133 -4.602 1.114 C-3.602 0.114 -3.602 0.114 0 0 Z M-3.602 1.114 C-3.602 5.074 -3.602 9.034 -3.602 13.114 C8.608 13.114 20.818 13.114 33.398 13.114 C33.398 9.154 33.398 5.194 33.398 1.114 C21.188 1.114 8.978 1.114 -3.602 1.114 Z " fill="#A7833F" transform="translate(76.601806640625,164.886474609375)"/>
<path d="M0 0 C5.28 0 10.56 0 16 0 C16 5.94 16 11.88 16 18 C10.72 18 5.44 18 0 18 C0 12.06 0 6.12 0 0 Z " fill="#93CE13" transform="translate(132,74)"/>
<path d="M0 0 C0.33 0 0.66 0 1 0 C1 13.53 1 27.06 1 41 C2.98 41 4.96 41 7 41 C7 43.97 7 46.94 7 50 C8.98 50 10.96 50 13 50 C13 54.62 13 59.24 13 64 C8.71 64 4.42 64 0 64 C0 42.88 0 21.76 0 0 Z " fill="#2D8404" transform="translate(168,69)"/>
<path d="M0 0 C8.25 0 16.5 0 25 0 C25 4.62 25 9.24 25 14 C24.34 13.34 23.68 12.68 23 12 C20.675 11.629 20.675 11.629 17.992 11.586 C17.006 11.547 16.02 11.509 15.004 11.469 C13.971 11.438 12.939 11.407 11.875 11.375 C10.835 11.336 9.794 11.298 8.723 11.258 C6.149 11.163 3.574 11.081 1 11 C0.67 7.37 0.34 3.74 0 0 Z " fill="#FEB82C" transform="translate(98,217)"/>
<path d="M0 0 C2.97 0 5.94 0 9 0 C9 0.66 9 1.32 9 2 C11.64 2 14.28 2 17 2 C17 2.33 17 2.66 17 3 C12.71 3 8.42 3 4 3 C4 10.92 4 18.84 4 27 C0.04 27 -3.92 27 -8 27 C-8 21.06 -8 15.12 -8 9 C-5.03 9 -2.06 9 1 9 C0.67 6.03 0.34 3.06 0 0 Z " fill="#67AF0D" transform="translate(76,92)"/>
<path d="M0 0 C3.96 0 7.92 0 12 0 C12 8.91 12 17.82 12 27 C10.02 27 8.04 27 6 27 C6 24.03 6 21.06 6 18 C4.02 18 2.04 18 0 18 C0 12.06 0 6.12 0 0 Z " fill="#67B00D" transform="translate(169,92)"/>
<path d="M0 0 C0.33 0 0.66 0 1 0 C1.029 3.771 1.047 7.542 1.062 11.312 C1.071 12.365 1.079 13.418 1.088 14.502 C1.109 21.404 0.723 28.135 0 35 C-3.63 34.67 -7.26 34.34 -11 34 C-11 26.74 -11 19.48 -11 12 C-7.7 12 -4.4 12 -1 12 C-0.67 8.04 -0.34 4.08 0 0 Z " fill="#FDBB3B" transform="translate(158,194)"/>
<path d="M0 0 C0.33 0 0.66 0 1 0 C1 29.04 1 58.08 1 88 C0.01 88 -0.98 88 -2 88 C-2.046 77.117 -2.082 66.234 -2.104 55.351 C-2.114 50.297 -2.128 45.244 -2.151 40.19 C-2.173 35.315 -2.185 30.439 -2.19 25.563 C-2.193 23.702 -2.201 21.841 -2.211 19.979 C-2.226 17.375 -2.228 14.77 -2.227 12.165 C-2.234 11.394 -2.241 10.623 -2.249 9.828 C-2.234 6.065 -2.112 3.192 0 0 Z " fill="#644307" transform="translate(182,166)"/>
<path d="M0 0 C0.33 0 0.66 0 1 0 C1 7.92 1 15.84 1 24 C4.63 24 8.26 24 12 24 C12 24.66 12 25.32 12 26 C0.78 26 -10.44 26 -22 26 C-22.33 26.99 -22.66 27.98 -23 29 C-23 27.35 -23 25.7 -23 24 C-19.04 24 -15.08 24 -11 24 C-11 19.38 -11 14.76 -11 10 C-7.7 10 -4.4 10 -1 10 C-0.67 6.7 -0.34 3.4 0 0 Z " fill="#FEB014" transform="translate(158,218)"/>
<path d="M0 0 C3.96 0 7.92 0 12 0 C12 6.93 12 13.86 12 21 C8.04 21 4.08 21 0 21 C0 14.07 0 7.14 0 0 Z " fill="#FEB014" transform="translate(183,233)"/>
<path d="M0 0 C16.83 0 33.66 0 51 0 C44.615 5.108 44.615 5.108 39.734 5.205 C38.853 5.225 37.972 5.245 37.065 5.266 C35.637 5.291 35.637 5.291 34.18 5.316 C33.206 5.337 32.232 5.358 31.229 5.379 C28.111 5.445 24.993 5.504 21.875 5.562 C19.764 5.606 17.654 5.649 15.543 5.693 C10.362 5.801 5.181 5.902 0 6 C0 4.02 0 2.04 0 0 Z " fill="#8C5F09" transform="translate(195,178)"/>
<path d="M0 0 C3.96 0 7.92 0 12 0 C12 8.25 12 16.5 12 25 C11.67 25 11.34 25 11 25 C11 22.69 11 20.38 11 18 C7.7 18 4.4 18 1 18 C0.23 11.933 -0.097 6.115 0 0 Z " fill="#FEC558" transform="translate(60,179)"/>
<path d="M0 0 C20.79 0 41.58 0 63 0 C63 0.33 63 0.66 63 1 C42.54 1 22.08 1 1 1 C1.33 5.95 1.66 10.9 2 16 C4.97 16 7.94 16 11 16 C12.074 20.296 12.073 23.602 12 28 C11.67 27.34 11.34 26.68 11 26 C5.831 26.406 5.831 26.406 1 28 C-0.832 18.842 0 9.339 0 0 Z " fill="#E0B057" transform="translate(183,165)"/>
<path d="M0 0 C5.28 0 10.56 0 16 0 C16 3.96 16 7.92 16 12 C10.72 12 5.44 12 0 12 C0 8.04 0 4.08 0 0 Z " fill="#93CF13" transform="translate(203,56)"/>
<path d="M0 0 C15.51 0 31.02 0 47 0 C47.495 1.98 47.495 1.98 48 4 C31.83 4 15.66 4 -1 4 C-0.67 2.68 -0.34 1.36 0 0 Z " fill="#FCA903" transform="translate(75,250)"/>
<path d="M0 0 C4.29 0 8.58 0 13 0 C13 0.66 13 1.32 13 2 C9.7 2 6.4 2 3 2 C3 18.17 3 34.34 3 51 C0.116 52.442 -2.417 52.094 -5.625 52.062 C-6.814 52.053 -8.002 52.044 -9.227 52.035 C-10.142 52.024 -11.057 52.012 -12 52 C-12 51.67 -12 51.34 -12 51 C-8.04 51 -4.08 51 0 51 C0 34.17 0 17.34 0 0 Z " fill="#513B0C" transform="translate(80,95)"/>
<path d="M0 0 C2.97 0 5.94 0 9 0 C9 5.61 9 11.22 9 17 C5.04 17 1.08 17 -3 17 C-3 14.03 -3 11.06 -3 8 C-2.01 8 -1.02 8 0 8 C0 5.36 0 2.72 0 0 Z " fill="#2D8804" transform="translate(148,129)"/>
<path d="M0 0 C4.29 0 8.58 0 13 0 C13 0.99 13 1.98 13 3 C13.99 3 14.98 3 16 3 C16 8.28 16 13.56 16 19 C14.68 19 13.36 19 12 19 C12 14.05 12 9.1 12 4 C9.36 4 6.72 4 4 4 C4 8.95 4 13.9 4 19 C2.68 19 1.36 19 0 19 C0 12.73 0 6.46 0 0 Z " fill="#C68608" transform="translate(255,239)"/>
<path d="M0 0 C4.29 0 8.58 0 13 0 C13 4.29 13 8.58 13 13 C8.71 13 4.42 13 0 13 C0 8.71 0 4.42 0 0 Z " fill="#77B90E" transform="translate(220,69)"/>
<path d="M0 0 C0.33 0 0.66 0 1 0 C1 1.65 1 3.3 1 5 C1.984 4.976 1.984 4.976 2.988 4.952 C5.95 4.89 8.912 4.851 11.875 4.812 C13.424 4.775 13.424 4.775 15.004 4.736 C15.99 4.727 16.976 4.717 17.992 4.707 C18.903 4.691 19.815 4.676 20.753 4.659 C21.495 4.772 22.236 4.884 23 5 C25.351 8.527 25.214 10.029 25.125 14.188 C25.107 15.274 25.089 16.361 25.07 17.48 C25.047 18.312 25.024 19.143 25 20 C24.67 19.01 24.34 18.02 24 17 C18.831 17.406 18.831 17.406 14 19 C12.542 14.627 12.94 10.605 13 6 C8.71 6 4.42 6 0 6 C0 4.02 0 2.04 0 0 Z " fill="#FCB21C" transform="translate(98,223)"/>
<path d="M0 0 C0.33 0 0.66 0 1 0 C1.33 2.64 1.66 5.28 2 8 C13.22 8 24.44 8 36 8 C36.33 5.36 36.66 2.72 37 0 C37.33 0 37.66 0 38 0 C38 3.96 38 7.92 38 12 C25.46 12 12.92 12 0 12 C0 8.04 0 4.08 0 0 Z " fill="#F3A303" transform="translate(134,242)"/>
<path d="M0 0 C0.833 0.002 1.665 0.004 2.523 0.007 C3.464 0.007 4.405 0.007 5.375 0.007 C6.398 0.012 7.42 0.017 8.474 0.023 C9.516 0.024 10.558 0.025 11.631 0.027 C14.974 0.033 18.316 0.045 21.658 0.058 C23.918 0.063 26.177 0.067 28.437 0.071 C33.99 0.082 39.543 0.099 45.095 0.12 C45.59 1.605 45.59 1.605 46.095 3.12 C29.595 3.45 13.095 3.78 -3.905 4.12 C-2.586 0.163 -2.586 0.163 0 0 Z " fill="#F2B02F" transform="translate(186.90455627441406,213.87974548339844)"/>
<path d="M0 0 C4.29 0 8.58 0 13 0 C13 3.96 13 7.92 13 12 C8.71 12 4.42 12 0 12 C0 8.04 0 4.08 0 0 Z " fill="#4C920E" transform="translate(219,121)"/>
<path d="M0 0 C0.33 0 0.66 0 1 0 C1.33 2.97 1.66 5.94 2 9 C2.33 8.67 2.66 8.34 3 8 C5.448 7.912 7.868 7.885 10.316 7.902 C11.047 7.904 11.779 7.905 12.532 7.907 C14.875 7.912 17.219 7.925 19.562 7.938 C21.148 7.943 22.733 7.947 24.318 7.951 C28.212 7.962 32.106 7.979 36 8 C36 9.32 36 10.64 36 12 C32.04 12 28.08 12 24 12 C23.67 12.66 23.34 13.32 23 14 C23 13.34 23 12.68 23 12 C15.41 12 7.82 12 0 12 C0 8.04 0 4.08 0 0 Z " fill="#FCC96B" transform="translate(134,166)"/>
<path d="M0 0 C12.54 0 25.08 0 38 0 C38 4.62 38 9.24 38 14 C34.04 14 30.08 14 26 14 C26 15.32 26 16.64 26 18 C25.34 18 24.68 18 24 18 C23.67 19.32 23.34 20.64 23 22 C23 21.34 23 20.68 23 20 C19.7 20 16.4 20 13 20 C13 17.69 13 15.38 13 13 C20.92 13 28.84 13 37 13 C37 9.04 37 5.08 37 1 C24.79 1 12.58 1 0 1 C0 0.67 0 0.34 0 0 Z " fill="#DCAD55" transform="translate(134,165)"/>
<path d="M0 0 C3.96 0 7.92 0 12 0 C12 4.95 12 9.9 12 15 C11.01 15 10.02 15 9 15 C9 13.02 9 11.04 9 9 C7.02 9 5.04 9 3 9 C3 11.31 3 13.62 3 16 C2.01 16 1.02 16 0 16 C0 10.72 0 5.44 0 0 Z " fill="#77BF0F" transform="translate(94,95)"/>
<path d="M0 0 C3.96 0 7.92 0 12 0 C12 3.96 12 7.92 12 12 C8.04 12 4.08 12 0 12 C0 8.04 0 4.08 0 0 Z " fill="#FFCC65" transform="translate(111,179)"/>
<path d="M0 0 C0.33 0 0.66 0 1 0 C1 19.14 1 38.28 1 58 C11.89 58 22.78 58 34 58 C34 54.37 34 50.74 34 47 C35.32 47 36.64 47 38 47 C38 50.96 38 54.92 38 59 C25.46 59 12.92 59 0 59 C0 39.53 0 20.06 0 0 Z " fill="#36250C" transform="translate(181,74)"/>
<path d="M0 0 C4.29 0 8.58 0 13 0 C13 21.12 13 42.24 13 64 C8.71 64 4.42 64 0 64 C0 63.67 0 63.34 0 63 C3.96 63 7.92 63 12 63 C12 43.86 12 24.72 12 5 C8.37 5 4.74 5 1 5 C0.67 3.35 0.34 1.7 0 0 Z " fill="#946A1A" transform="translate(134,178)"/>
<path d="M0 0 C0.99 0 1.98 0 3 0 C3 5.61 3 11.22 3 17 C-0.96 17 -4.92 17 -9 17 C-9 14.03 -9 11.06 -9 8 C-6.03 8 -3.06 8 0 8 C0 5.36 0 2.72 0 0 Z " fill="#2C8804" transform="translate(77,129)"/>
<path d="M0 0 C3.3 0 6.6 0 10 0 C10 1.32 10 2.64 10 4 C7.03 4 4.06 4 1 4 C1 7.63 1 11.26 1 15 C3.97 15 6.94 15 10 15 C10 16.32 10 17.64 10 19 C6.7 19 3.4 19 0 19 C0 18.01 0 17.02 0 16 C-0.99 16 -1.98 16 -3 16 C-3 11.71 -3 7.42 -3 3 C-2.01 3 -1.02 3 0 3 C0 2.01 0 1.02 0 0 Z " fill="#E0980A" transform="translate(243,239)"/>
<path d="M0 0 C0.66 1.32 1.32 2.64 2 4 C2.33 3.67 2.66 3.34 3 3 C5.671 2.859 8.324 2.958 11 3 C12.607 6.215 12.057 9.436 12 13 C11.374 13.049 10.747 13.098 10.102 13.148 C9.284 13.223 8.467 13.298 7.625 13.375 C6.813 13.445 6.001 13.514 5.164 13.586 C2.797 13.829 2.797 13.829 1 16 C-0.141 12.578 -0.098 9.913 -0.062 6.312 C-0.053 5.133 -0.044 3.954 -0.035 2.738 C-0.024 1.835 -0.012 0.931 0 0 Z " fill="#FEC351" transform="translate(183,188)"/>
<path d="M0 0 C4.29 0 8.58 0 13 0 C13 2.97 13 5.94 13 9 C8.71 9 4.42 9 0 9 C0 6.03 0 3.06 0 0 Z " fill="#2D8504" transform="translate(106,137)"/>
<path d="M0 0 C3.63 0 7.26 0 11 0 C11 3.63 11 7.26 11 11 C7.37 10.67 3.74 10.34 0 10 C0 6.7 0 3.4 0 0 Z " fill="#FFB72B" transform="translate(147,218)"/>
<path d="M0 0 C2.64 0 5.28 0 8 0 C8 0.66 8 1.32 8 2 C9.267 1.856 10.534 1.711 11.84 1.562 C13.539 1.375 15.238 1.187 16.938 1 C17.768 0.905 18.599 0.809 19.455 0.711 C25.006 0.106 30.416 -0.09 36 0 C34.969 1.976 34.969 1.976 33 4 C30.353 4.357 28.128 4.468 25.488 4.391 C24.76 4.385 24.032 4.379 23.282 4.373 C20.958 4.351 18.636 4.301 16.312 4.25 C14.736 4.23 13.16 4.212 11.584 4.195 C7.722 4.151 3.861 4.082 0 4 C0 2.68 0 1.36 0 0 Z " fill="#6A3B09" transform="translate(182,70)"/>
<path d="M0 0 C1.98 0 3.96 0 6 0 C6 5.94 6 11.88 6 18 C4.02 18 2.04 18 0 18 C0 12.06 0 6.12 0 0 Z " fill="#68B00D" transform="translate(175,101)"/>
<path d="M0 0 C0.99 0.33 1.98 0.66 3 1 C3 12.55 3 24.1 3 36 C1.515 36.495 1.515 36.495 0 37 C0 24.79 0 12.58 0 0 Z " fill="#5D3E02" transform="translate(123,217)"/>
<path d="M0 0 C4 3 4 3 4.454 5.36 C4.433 6.266 4.412 7.172 4.391 8.105 C4.378 9.088 4.365 10.071 4.352 11.084 C4.318 12.108 4.285 13.132 4.25 14.188 C4.232 15.223 4.214 16.259 4.195 17.326 C4.148 19.885 4.082 22.442 4 25 C6.97 25 9.94 25 13 25 C13 25.33 13 25.66 13 26 C8.71 26 4.42 26 0 26 C0 17.42 0 8.84 0 0 Z " fill="#4A270D" transform="translate(93,69)"/>
<path d="M0 0 C11.88 0 23.76 0 36 0 C36 0.99 36 1.98 36 3 C31.195 3.074 26.389 3.129 21.583 3.165 C19.948 3.18 18.313 3.2 16.677 3.226 C14.329 3.263 11.981 3.28 9.633 3.293 C8.533 3.316 8.533 3.316 7.41 3.34 C5.348 3.341 5.348 3.341 2 3 C1.34 2.01 0.68 1.02 0 0 Z " fill="#835600" transform="translate(74,179)"/>
<path d="M0 0 C2.64 0 5.28 0 8 0 C8 4.29 8 8.58 8 13 C5.36 13 2.72 13 0 13 C0 8.71 0 4.42 0 0 Z " fill="#4F950F" transform="translate(211,133)"/>
<path d="M0 0 C0.33 0 0.66 0 1 0 C1 13.53 1 27.06 1 41 C2.98 41 4.96 41 7 41 C7 43.97 7 46.94 7 50 C4.69 50 2.38 50 0 50 C0 33.5 0 17 0 0 Z " fill="#578A0E" transform="translate(168,69)"/>
<path d="M0 0 C0.33 0 0.66 0 1 0 C1 4.95 1 9.9 1 15 C-2.96 15 -6.92 15 -11 15 C-11 12.36 -11 9.72 -11 7 C-7.37 7 -3.74 7 0 7 C0 4.69 0 2.38 0 0 Z " fill="#FCB118" transform="translate(72,226)"/>
<path d="M0 0 C0.99 0 1.98 0 3 0 C3 7.92 3 15.84 3 24 C5.64 24 8.28 24 11 24 C11 21.36 11 18.72 11 16 C11.33 16 11.66 16 12 16 C12 18.97 12 21.94 12 25 C8.04 25 4.08 25 0 25 C0 16.75 0 8.5 0 0 Z " fill="#529A0F" transform="translate(119,95)"/>
<path d="M0 0 C3.3 0 6.6 0 10 0 C10 2.97 10 5.94 10 9 C6.7 9 3.4 9 0 9 C0 6.03 0 3.06 0 0 Z " fill="#68B10D" transform="translate(76,74)"/>
<path d="M0 0 C0.99 1.485 0.99 1.485 2 3 C4.437 3.364 4.437 3.364 7.125 3.188 C8.49 3.147 8.49 3.147 9.883 3.105 C10.581 3.071 11.28 3.036 12 3 C12 5.31 12 7.62 12 10 C8.04 10 4.08 10 0 10 C0 6.7 0 3.4 0 0 Z " fill="#FDAC05" transform="translate(183,244)"/>
<path d="M0 0 C3.3 0 6.6 0 10 0 C9.67 2.97 9.34 5.94 9 9 C6.03 9 3.06 9 0 9 C0 6.03 0 3.06 0 0 Z " fill="#91CD12" transform="translate(184,56)"/>
<path d="M0 0 C3 0.125 3 0.125 4 1.125 C4.098 2.622 4.13 4.124 4.125 5.625 C4.128 6.44 4.13 7.254 4.133 8.094 C4 10.125 4 10.125 3 11.125 C0 11.25 0 11.25 -3 11.125 C-4 10.125 -4 10.125 -4.133 8.094 C-4.13 7.279 -4.128 6.464 -4.125 5.625 C-4.128 4.81 -4.13 3.996 -4.133 3.156 C-3.917 -0.141 -3.37 0.14 0 0 Z " fill="#000000" transform="translate(233,248.875)"/>
<path d="M0 0 C1.98 0 3.96 0 6 0 C6 4.62 6 9.24 6 14 C4.02 14 2.04 14 0 14 C0 9.38 0 4.76 0 0 Z " fill="#4E9610" transform="translate(175,119)"/>
<path d="M0 0 C2.051 0.033 4.102 0.065 6.152 0.098 C6.482 2.738 6.812 5.378 7.152 8.098 C3.522 8.098 -0.108 8.098 -3.848 8.098 C-2.836 0.15 -2.836 0.15 0 0 Z " fill="#FFBB38" transform="translate(64.84765625,209.90234375)"/>
<path d="M0 0 C0.33 0 0.66 0 1 0 C1 7.92 1 15.84 1 24 C0.67 24 0.34 24 0 24 C-0.33 21.03 -0.66 18.06 -1 15 C-4.3 15 -7.6 15 -11 15 C-11 13.35 -11 11.7 -11 10 C-7.7 10 -4.4 10 -1 10 C-0.67 6.7 -0.34 3.4 0 0 Z " fill="#FBB220" transform="translate(158,218)"/>
<path d="M0 0 C0.33 0 0.66 0 1 0 C1 11.88 1 23.76 1 36 C-1 33 -1 33 -1 30 C-3.97 30 -6.94 30 -10 30 C-10.33 30.99 -10.66 31.98 -11 33 C-12.15 28.91 -12.111 24.968 -12.062 20.75 C-12.058 20.005 -12.053 19.26 -12.049 18.492 C-12.037 16.661 -12.019 14.831 -12 13 C-11.67 13 -11.34 13 -11 13 C-11 17.95 -11 22.9 -11 28 C-7.37 28 -3.74 28 0 28 C0 18.76 0 9.52 0 0 Z " fill="#E2A630" transform="translate(72,190)"/>
<path d="M0 0 C0.33 0 0.66 0 1 0 C1 3.96 1 7.92 1 12 C13.21 12 25.42 12 38 12 C38 12.33 38 12.66 38 13 C25.79 13 13.58 13 1 13 C1 16.63 1 20.26 1 24 C0.67 24 0.34 24 0 24 C0 20.37 0 16.74 0 13 C-3.96 13 -7.92 13 -12 13 C-12 12.67 -12 12.34 -12 12 C-8.04 12 -4.08 12 0 12 C0 8.04 0 4.08 0 0 Z " fill="#B68830" transform="translate(72,166)"/>
<path d="M0 0 C3.63 0 7.26 0 11 0 C11 0.66 11 1.32 11 2 C8.36 2 5.72 2 3 2 C3 7.28 3 12.56 3 18 C2.01 18 1.02 18 0 18 C0 12.06 0 6.12 0 0 Z " fill="#F4A60B" transform="translate(256,240)"/>
<path d="M0 0 C0.33 0 0.66 0 1 0 C1 3.96 1 7.92 1 12 C-2.63 12 -6.26 12 -10 12 C-10 10.02 -10 8.04 -10 6 C-7.03 6 -4.06 6 -1 6 C-0.67 4.02 -0.34 2.04 0 0 Z " fill="#F9C259" transform="translate(122,179)"/>
<path d="M0 0 C3.96 0 7.92 0 12 0 C12 1.98 12 3.96 12 6 C8.37 6.33 4.74 6.66 1 7 C0.67 4.69 0.34 2.38 0 0 Z " fill="#FECA65" transform="translate(60,179)"/>
<path d="M0 0 C3.3 0 6.6 0 10 0 C11.354 2.709 11.065 5.009 11 8 C10.67 7.34 10.34 6.68 10 6 C6.7 6.33 3.4 6.66 0 7 C0 4.69 0 2.38 0 0 Z " fill="#FFC65C" transform="translate(147,185)"/>
<path d="M0 0 C0.33 0.66 0.66 1.32 1 2 C3.017 3.134 3.017 3.134 5 4 C5 6.64 5 9.28 5 12 C7.64 12 10.28 12 13 12 C13 12.33 13 12.66 13 13 C8.71 13 4.42 13 0 13 C0 8.71 0 4.42 0 0 Z " fill="#4B2B0D" transform="translate(80,56)"/>
<path d="M0 0 C0.99 0.33 1.98 0.66 3 1 C2.34 1 1.68 1 1 1 C1 4.63 1 8.26 1 12 C1.99 11.67 2.98 11.34 4 11 C6.262 11.121 6.262 11.121 8.688 11.438 C9.496 11.539 10.304 11.641 11.137 11.746 C11.752 11.83 12.366 11.914 13 12 C13 13.32 13 14.64 13 16 C9.7 16 6.4 16 3 16 C3 15.01 3 14.02 3 13 C2.01 13 1.02 13 0 13 C0 8.71 0 4.42 0 0 Z " fill="#C68608" transform="translate(240,242)"/>
<path d="M0 0 C1.98 0 3.96 0 6 0 C6 2.97 6 5.94 6 9 C4.02 9 2.04 9 0 9 C0 6.03 0 3.06 0 0 Z " fill="#92CD13" transform="translate(175,101)"/>
<path d="M0 0 C1.98 0 3.96 0 6 0 C6 2.97 6 5.94 6 9 C4.02 9 2.04 9 0 9 C0 6.03 0 3.06 0 0 Z " fill="#67B00D" transform="translate(175,74)"/>
<path d="M0 0 C0.33 0 0.66 0 1 0 C1.027 2.146 1.046 4.292 1.062 6.438 C1.074 7.632 1.086 8.827 1.098 10.059 C1 13 1 13 0 14 C2.97 14.33 5.94 14.66 9 15 C9 15.33 9 15.66 9 16 C5.04 16 1.08 16 -3 16 C-2.886 13.708 -2.759 11.416 -2.625 9.125 C-2.555 7.849 -2.486 6.573 -2.414 5.258 C-2 2 -2 2 0 0 Z " fill="#4C220C" transform="translate(218,70)"/>
<path d="M0 0 C0.33 0 0.66 0 1 0 C1.33 4.95 1.66 9.9 2 15 C-7.18 15.293 -7.18 15.293 -10 15 C-10.66 14.01 -11.32 13.02 -12 12 C-8.04 12 -4.08 12 0 12 C0 8.04 0 4.08 0 0 Z " fill="#865A08" transform="translate(123,179)"/>
<path d="M0 0 C1.32 0 2.64 0 4 0 C4 3.96 4 7.92 4 12 C2.35 12 0.7 12 -1 12 C-0.67 8.04 -0.34 4.08 0 0 Z " fill="#491E0D" transform="translate(215,121)"/>
<path d="M0 0 C2.31 0 4.62 0 7 0 C7 2.31 7 4.62 7 7 C4.69 7 2.38 7 0 7 C0 4.69 0 2.38 0 0 Z " fill="#67B10D" transform="translate(112,121)"/>
<path d="M0 0 C2.64 0 5.28 0 8 0 C8 1.98 8 3.96 8 6 C5.36 6 2.72 6 0 6 C0 4.02 0 2.04 0 0 Z " fill="#79C10F" transform="translate(122,95)"/>
<path d="M0 0 C0.33 0 0.66 0 1 0 C1 4.29 1 8.58 1 13 C4.63 13 8.26 13 12 13 C9 16 9 16 6.301 16.293 C5.315 16.258 4.329 16.223 3.312 16.188 C1.822 16.147 1.822 16.147 0.301 16.105 C-0.458 16.071 -1.218 16.036 -2 16 C-1.67 15.34 -1.34 14.68 -1 14 C-0.77 11.629 -0.589 9.253 -0.438 6.875 C-0.354 5.594 -0.27 4.312 -0.184 2.992 C-0.093 1.511 -0.093 1.511 0 0 Z " fill="#634A0B" transform="translate(219,69)"/>
<path d="M0 0 C3.96 0 7.92 0 12 0 C12 1.32 12 2.64 12 4 C8.37 4 4.74 4 1 4 C0.67 2.68 0.34 1.36 0 0 Z " fill="#7A5100" transform="translate(134,179)"/>
<path d="M0 0 C3.63 0 7.26 0 11 0 C11 1.32 11 2.64 11 4 C7.37 4 3.74 4 0 4 C0 2.68 0 1.36 0 0 Z " fill="#7A5000" transform="translate(160,179)"/>
<path d="M0 0 C2.64 0 5.28 0 8 0 C8 1.65 8 3.3 8 5 C5.36 5 2.72 5 0 5 C0 3.35 0 1.7 0 0 Z " fill="#90CA12" transform="translate(85,69)"/>
<path d="M0 0 C2.97 0 5.94 0 9 0 C9 1.32 9 2.64 9 4 C6.03 4 3.06 4 0 4 C0 2.68 0 1.36 0 0 Z " fill="#4D930F" transform="translate(193,133)"/>
<path d="M0 0 C1.98 0 3.96 0 6 0 C6 1.98 6 3.96 6 6 C4.02 6 2.04 6 0 6 C0 4.02 0 2.04 0 0 Z " fill="#C5E51B" transform="translate(86,86)"/>
<path d="M0 0 C1.32 0 2.64 0 4 0 C4 2.31 4 4.62 4 7 C2.68 7 1.36 7 0 7 C0 4.69 0 2.38 0 0 Z " fill="#CC8A08" transform="translate(231,251)"/>
<path d="M0 0 C3 3 3 3 3.293 5.043 C3.195 7.029 3.098 9.014 3 11 C2.01 11 1.02 11 0 11 C0 7.37 0 3.74 0 0 Z " fill="#4D3100" transform="translate(111,167)"/>
<path d="M0 0 C0.99 0 1.98 0 3 0 C3 2.97 3 5.94 3 9 C2.01 9 1.02 9 0 9 C0 6.03 0 3.06 0 0 Z " fill="#2A8903" transform="translate(145,119)"/>
<path d="M0 0 C0.99 0 1.98 0 3 0 C3 2.97 3 5.94 3 9 C2.01 9 1.02 9 0 9 C0 6.03 0 3.06 0 0 Z " fill="#4E9A10" transform="translate(77,101)"/>
<path d="M0 0 C0.99 0 1.98 0 3 0 C3 2.64 3 5.28 3 8 C2.01 8 1.02 8 0 8 C0 5.36 0 2.72 0 0 Z " fill="#4E9810" transform="translate(145,111)"/>
<path d="M0 0 C0.99 0 1.98 0 3 0 C3 2.64 3 5.28 3 8 C2.01 8 1.02 8 0 8 C0 5.36 0 2.72 0 0 Z " fill="#92CE12" transform="translate(229,74)"/>
<path d="M0 0 C0.99 0 1.98 0 3 0 C3 1.98 3 3.96 3 6 C2.01 6 1.02 6 0 6 C0 4.02 0 2.04 0 0 Z " fill="#68AF0D" transform="translate(119,95)"/>
<path d="M0 0 C2.97 0 5.94 0 9 0 C7.515 1.485 7.515 1.485 6 3 C2.812 2.688 2.812 2.688 0 2 C0 1.34 0 0.68 0 0 Z " fill="#6A3808" transform="translate(209,70)"/>
</svg>
