<?xml version="1.0" encoding="UTF-8"?>
<svg version="1.1" xmlns="http://www.w3.org/2000/svg" width="300" height="300">
<path d="M0 0 C6.62017994 -0.14828108 13.23939443 -0.25718739 19.86083984 -0.32958984 C22.11328975 -0.35976962 24.36562207 -0.400719 26.61767578 -0.45263672 C29.85478701 -0.52539682 33.09034555 -0.55944469 36.328125 -0.5859375 C37.83925873 -0.63238907 37.83925873 -0.63238907 39.38092041 -0.67977905 C42.05217662 -0.68106598 44.40237344 -0.62361373 47 0 C50.47001083 3.7422573 51.52013264 6.96139277 52 12 C54.64 12 57.28 12 60 12 C60.99 13.98 60.99 13.98 62 16 C62.33 10.72 62.66 5.44 63 0 C78.18 0 93.36 0 109 0 C109.495 1.98 109.495 1.98 110 4 C110.66 2.68 111.32 1.36 112 0 C135.76 0 159.52 0 184 0 C184 21 184 21 180.3203125 25.2890625 C171.81084832 28.6298151 161.84616741 27.61908207 152.875 27.375 C150.94535416 27.34485941 149.01566292 27.31749085 147.0859375 27.29296875 C142.38949169 27.22730472 137.69525264 27.12401114 133 27 C133 30.63 133 34.26 133 38 C145.54 38 158.08 38 171 38 C171 45.26 171 52.52 171 60 C166.21685242 60.79719126 162.21035471 61.11684142 157.4140625 61.09765625 C155.48747803 61.09390991 155.48747803 61.09390991 153.52197266 61.09008789 C151.90597168 61.08098389 150.2899707 61.07187988 148.625 61.0625 C143.46875 61.041875 138.3125 61.02125 133 61 C133 72.88 133 84.76 133 97 C89.77 97 46.54 97 2 97 C1.67 93.04 1.34 89.08 1 85 C-3.29 85 -7.58 85 -12 85 C-12.02312504 75.62964062 -12.04091591 66.25929099 -12.05181217 56.88890934 C-12.05704065 52.53831541 -12.06413765 48.18774093 -12.07543945 43.8371582 C-12.08626959 39.64209742 -12.0922771 35.44705541 -12.09487724 31.25198174 C-12.09673126 29.64793032 -12.10035144 28.04387997 -12.10573006 26.4398365 C-12.11294219 24.20083485 -12.11399087 21.9619117 -12.11352539 19.72290039 C-12.115746 18.44604874 -12.11796661 17.16919708 -12.12025452 15.85365295 C-12 13 -12 13 -11 12 C-9.15108054 11.76636119 -7.29511969 11.58696365 -5.4375 11.4375 C-2.7459375 11.2209375 -2.7459375 11.2209375 0 11 C0 7.37 0 3.74 0 0 Z M63 23 C63 27.95 63 32.9 63 38 C59.72785469 37.91318187 56.45850495 37.80632335 53.1875 37.6875 C52.25873047 37.66494141 51.32996094 37.64238281 50.37304688 37.61914062 C49.48037109 37.58369141 48.58769531 37.54824219 47.66796875 37.51171875 C46.43469849 37.47244263 46.43469849 37.47244263 45.17651367 37.43237305 C43 37 43 37 41.27075195 35.90551758 C40 34 40 34 39 27 C31.41 27 23.82 27 16 27 C16.33 43.17 16.66 59.34 17 76 C24.26 76 31.52 76 39 76 C39 75.01 39 74.02 39 73 C34.71 72.67 30.42 72.34 26 72 C26 65.07 26 58.14 26 51 C30.80598846 51.09683328 35.61109296 51.19949419 40.41650391 51.31738281 C42.0518424 51.35570852 43.68726624 51.39055507 45.32275391 51.421875 C47.6712091 51.46744842 50.01907495 51.52545367 52.3671875 51.5859375 C53.46726639 51.60326431 53.46726639 51.60326431 54.58956909 51.62094116 C59.77225659 51.77225659 59.77225659 51.77225659 62 54 C62.31884766 56.24658203 62.31884766 56.24658203 62.4140625 59.0078125 C62.47207031 60.48701172 62.47207031 60.48701172 62.53125 61.99609375 C62.5621875 63.02863281 62.593125 64.06117188 62.625 65.125 C62.68300781 66.68541016 62.68300781 66.68541016 62.7421875 68.27734375 C62.83664329 70.85126402 62.91941771 73.42560805 63 76 C66.96 76 70.92 76 75 76 C75 59.83 75 43.66 75 27 C71.37 27 67.74 27 64 27 C63.505 25.02 63.505 25.02 63 23 Z M108 22 C107.67 23.65 107.34 25.3 107 27 C103.7 27 100.4 27 97 27 C97 43.17 97 59.34 97 76 C100.96 76.33 104.92 76.66 109 77 C109 58.85 109 40.7 109 22 C108.67 22 108.34 22 108 22 Z " fill="#2D1D00" transform="translate(67,161)"/>
<path d="M0 0 C3.54080671 -0.20439826 7.08009007 -0.32797882 10.625 -0.4375 C12.12353516 -0.52547852 12.12353516 -0.52547852 13.65234375 -0.61523438 C20.91334094 -0.78353563 20.91334094 -0.78353563 24.03662109 1.46850586 C26.78564287 4.53910057 27.9201782 6.26830016 28.375 10.4375 C28.25125 11.283125 28.1275 12.12875 28 13 C30.31 13 32.62 13 35 13 C35.66 14.32 36.32 15.64 37 17 C37.66 17 38.32 17 39 17 C40.20029908 19.40059817 40.11459743 20.89360649 40.09765625 23.5703125 C40.09443359 24.46621094 40.09121094 25.36210938 40.08789062 26.28515625 C40.07532227 27.69087891 40.07532227 27.69087891 40.0625 29.125 C40.05798828 30.06988281 40.05347656 31.01476562 40.04882812 31.98828125 C40.03702357 34.32558387 40.02055759 36.66276061 40 39 C41.27875 38.9690625 42.5575 38.938125 43.875 38.90625 C47.75 38.8125 47.75 38.8125 50 40.5 C50.495 41.2425 50.495 41.2425 51 42 C51.33 41.01 51.66 40.02 52 39 C56.29 39 60.58 39 65 39 C65 30.42 65 21.84 65 13 C69.29 13 73.58 13 78 13 C78 8.71 78 4.42 78 0 C85.26 0 92.52 0 100 0 C100.495 8.415 100.495 8.415 101 17 C101.33 15.68 101.66 14.36 102 13 C105.3 13 108.6 13 112 13 C111.938125 12.154375 111.87625 11.30875 111.8125 10.4375 C112 7 112 7 115 0 C130.84 0 146.68 0 163 0 C163 4.29 163 8.58 163 13 C167.29 13 171.58 13 176 13 C176 20.26 176 27.52 176 35 C167 39.5 167 39.5 162.84375 39.390625 C161.9671875 39.37773438 161.090625 39.36484375 160.1875 39.3515625 C159.300625 39.31804687 158.41375 39.28453125 157.5 39.25 C156.5821875 39.23195312 155.664375 39.21390625 154.71875 39.1953125 C152.47870665 39.14864493 150.23920867 39.07691938 148 39 C148 35.04 148 31.08 148 27 C140.08 27 132.16 27 124 27 C124 43.83 124 60.66 124 78 C131.59 78 139.18 78 147 78 C147.33 74.04 147.66 70.08 148 66 C151.82641414 65.23471717 154.70558653 64.8810368 158.51953125 64.90234375 C159.54111328 64.90556641 160.56269531 64.90878906 161.61523438 64.91210938 C162.67033203 64.92048828 163.72542969 64.92886719 164.8125 64.9375 C165.88693359 64.94201172 166.96136719 64.94652344 168.06835938 64.95117188 C170.71229683 64.96292271 173.35611952 64.97935213 176 65 C176.05957606 72.41804703 175.7669286 79.61831227 175 87 C170.71 87 166.42 87 162 87 C162 90.96 162 94.92 162 99 C155.20068631 99.02466544 148.40139849 99.04284348 141.60205078 99.05493164 C139.28759304 99.05996943 136.9731385 99.06679981 134.65869141 99.07543945 C131.3375571 99.08752924 128.01646475 99.09323375 124.6953125 99.09765625 C123.13588425 99.10539818 123.13588425 99.10539818 121.54495239 99.11329651 C120.58410736 99.11337204 119.62326233 99.11344757 118.63330078 99.11352539 C117.78502716 99.115746 116.93675354 99.11796661 116.06277466 99.12025452 C114 99 114 99 112 98 C112 94.37 112 90.74 112 87 C109.5559375 87.0309375 109.5559375 87.0309375 107.0625 87.0625 C105.37500659 87.08386068 103.68608966 87.07205511 102 87 C101.67 86.67 101.34 86.34 101 86 C100.67 90.29 100.34 94.58 100 99 C92.74 99 85.48 99 78 99 C78 83.16 78 67.32 78 51 C77.01 51 76.02 51 75 51 C75.03552979 51.69150146 75.07105957 52.38300293 75.10766602 53.09545898 C75.26465181 56.20922906 75.41368123 59.32332938 75.5625 62.4375 C75.64661133 64.07041992 75.64661133 64.07041992 75.73242188 65.73632812 C75.78076172 66.77080078 75.82910156 67.80527344 75.87890625 68.87109375 C75.94960327 70.30859985 75.94960327 70.30859985 76.02172852 71.77514648 C76 74 76 74 75 75 C71.37 75 67.74 75 64 75 C64 82.59 64 90.18 64 98 C61.44276771 99.27861615 59.63262898 99.11336609 56.7734375 99.09765625 C55.84450684 99.09515869 54.91557617 99.09266113 53.95849609 99.09008789 C52.77594238 99.08098389 51.59338867 99.07187988 50.375 99.0625 C44.744375 99.0315625 44.744375 99.0315625 39 99 C39 91.08 39 83.16 39 75 C35.7 74.67 32.4 74.34 29 74 C29 81.92 29 89.84 29 98 C25.82212459 99.0592918 23.57411057 99.11458939 20.23828125 99.09765625 C19.12001953 99.09443359 18.00175781 99.09121094 16.84960938 99.08789062 C15.68236328 99.07951172 14.51511719 99.07113281 13.3125 99.0625 C12.13365234 99.05798828 10.95480469 99.05347656 9.74023438 99.04882812 C6.82677211 99.03703273 3.91341137 99.0205727 1 99 C-0.25250329 79.27342616 -0.1192231 59.55074388 -0.06866455 39.79510498 C-0.05827664 35.29569984 -0.05383442 30.79628877 -0.04882812 26.296875 C-0.03823074 17.53123412 -0.02125449 8.7656215 0 0 Z " fill="#2D080C" transform="translate(62,51)"/>
<path d="M0 0 C1.79244141 0.01740234 1.79244141 0.01740234 3.62109375 0.03515625 C5.41740234 0.04869141 5.41740234 0.04869141 7.25 0.0625 C8.17683594 0.07410156 9.10367188 0.08570313 10.05859375 0.09765625 C10.08171577 11.94530798 10.09950812 23.79295439 10.11040592 35.64062405 C10.11563506 41.14136487 10.12273326 46.6420903 10.1340332 52.14282227 C10.144861 57.44662185 10.15087035 62.7504066 10.15347099 68.05421638 C10.15532544 70.08251237 10.15894642 72.11080751 10.16432381 74.13909721 C10.17153281 76.96962139 10.17258475 79.80008343 10.17211914 82.63061523 C10.17571442 83.47793716 10.17930969 84.32525909 10.18301392 85.19825745 C10.17264591 90.98360409 10.17264591 90.98360409 9.05859375 92.09765625 C4.76859375 92.09765625 0.47859375 92.09765625 -3.94140625 92.09765625 C-3.94140625 75.26765625 -3.94140625 58.43765625 -3.94140625 41.09765625 C-7.57140625 41.42765625 -11.20140625 41.75765625 -14.94140625 42.09765625 C-15.27140625 50.01765625 -15.60140625 57.93765625 -15.94140625 66.09765625 C-20.23140625 66.09765625 -24.52140625 66.09765625 -28.94140625 66.09765625 C-28.94140625 74.34765625 -28.94140625 82.59765625 -28.94140625 91.09765625 C-33.23140625 91.09765625 -37.52140625 91.09765625 -41.94140625 91.09765625 C-41.94140625 82.84765625 -41.94140625 74.59765625 -41.94140625 66.09765625 C-46.23140625 66.09765625 -50.52140625 66.09765625 -54.94140625 66.09765625 C-54.94140625 57.51765625 -54.94140625 48.93765625 -54.94140625 40.09765625 C-50.32140625 40.09765625 -45.70140625 40.09765625 -40.94140625 40.09765625 C-40.94140625 48.34765625 -40.94140625 56.59765625 -40.94140625 65.09765625 C-36.98140625 65.09765625 -33.02140625 65.09765625 -28.94140625 65.09765625 C-28.94140625 56.84765625 -28.94140625 48.59765625 -28.94140625 40.09765625 C-24.98140625 40.09765625 -21.02140625 40.09765625 -16.94140625 40.09765625 C-16.94140625 31.18765625 -16.94140625 22.27765625 -16.94140625 13.09765625 C-12.65140625 13.09765625 -8.36140625 13.09765625 -3.94140625 13.09765625 C-3.96203125 11.13828125 -3.98265625 9.17890625 -4.00390625 7.16015625 C-4.02517813 5.13932749 -4.01384678 3.11729824 -3.94140625 1.09765625 C-2.94140625 0.09765625 -2.94140625 0.09765625 0 0 Z " fill="#517B0E" transform="translate(147.94140625,54.90234375)"/>
<path d="M0 0 C20.79 0 41.58 0 63 0 C63 4.29 63 8.58 63 13 C46.5 13.33 30 13.66 13 14 C12.67 22.25 12.34 30.5 12 39 C24.54 39 37.08 39 50 39 C50 43.29 50 47.58 50 52 C37.46 52 24.92 52 12 52 C12 64.21 12 76.42 12 89 C8.04 89 4.08 89 0 89 C0 59.63 0 30.26 0 0 Z " fill="#FBBF4B" transform="translate(183,165)"/>
<path d="M0 0 C12.87 0 25.74 0 39 0 C39 4.29 39 8.58 39 13 C43.29 13 47.58 13 52 13 C52.7255814 25.09302326 52.7255814 25.09302326 49.75 28.8125 C44.34729791 30.52335566 39.65880327 30.25150237 34 30 C34 26.04 34 22.08 34 18 C22.78 18 11.56 18 0 18 C0 37.47 0 56.94 0 77 C-4.29 77 -8.58 77 -13 77 C-13 55.88 -13 34.76 -13 13 C-8.71 13 -4.42 13 0 13 C0 8.71 0 4.42 0 0 Z " fill="#71B50E" transform="translate(181,56)"/>
<path d="M0 0 C12.54 0 25.08 0 38 0 C38 4.62 38 9.24 38 14 C34.04 14 30.08 14 26 14 C25.67 34.79 25.34 55.58 25 77 C28.96 77 32.92 77 37 77 C37 80.96 37 84.92 37 89 C24.79 89 12.58 89 0 89 C0 85.04 0 81.08 0 77 C4.29 77 8.58 77 13 77 C12.67 56.21 12.34 35.42 12 14 C8.04 13.67 4.08 13.34 0 13 C0 8.71 0 4.42 0 0 Z " fill="#FABA3D" transform="translate(134,165)"/>
<path d="M0 0 C1.60279192 0.00015914 3.20558896 0.00585476 4.80834961 0.01586914 C5.65038437 0.01728409 6.49241913 0.01869904 7.35997009 0.02015686 C10.06024671 0.02577276 12.76044163 0.03832791 15.46069336 0.05102539 C17.28686404 0.05603834 19.11303602 0.06060161 20.93920898 0.06469727 C25.42556878 0.07574735 29.9118672 0.0930226 34.39819336 0.11352539 C34.39819336 4.40352539 34.39819336 8.69352539 34.39819336 13.11352539 C38.35819336 13.11352539 42.31819336 13.11352539 46.39819336 13.11352539 C46.39819336 17.40352539 46.39819336 21.69352539 46.39819336 26.11352539 C42.10819336 26.11352539 37.81819336 26.11352539 33.39819336 26.11352539 C33.39819336 22.15352539 33.39819336 18.19352539 33.39819336 14.11352539 C21.18819336 14.11352539 8.97819336 14.11352539 -3.60180664 14.11352539 C-3.60180664 34.57352539 -3.60180664 55.03352539 -3.60180664 76.11352539 C-7.56180664 76.11352539 -11.52180664 76.11352539 -15.60180664 76.11352539 C-16.96338564 55.13062045 -16.6994757 34.12890121 -16.60180664 13.11352539 C-12.64180664 13.11352539 -8.68180664 13.11352539 -4.60180664 13.11352539 C-4.62243164 11.15415039 -4.64305664 9.19477539 -4.66430664 7.17602539 C-4.68557852 5.15519663 -4.67424717 3.13316738 -4.60180664 1.11352539 C-3.60180664 0.11352539 -3.60180664 0.11352539 0 0 Z " fill="#FBBB3D" transform="translate(76.601806640625,164.886474609375)"/>
<path d="M0 0 C4.29 0 8.58 0 13 0 C13 4.62 13 9.24 13 14 C17.29 14 21.58 14 26 14 C26 22.58 26 31.16 26 40 C21.71 40 17.42 40 13 40 C13 56.83 13 73.66 13 91 C9.04 91 5.08 91 1 91 C0.18107609 60.66061135 -0.13727317 30.35004261 0 0 Z " fill="#78BC0F" transform="translate(67,55)"/>
<path d="M0 0 C8.25 0 16.5 0 25 0 C25 12.21 25 24.42 25 37 C8.83 37 -7.34 37 -24 37 C-24 33.04 -24 29.08 -24 25 C-11.79 25 0.42 25 13 25 C13 20.71 13 16.42 13 12 C8.71 12 4.42 12 0 12 C0 8.04 0 4.08 0 0 Z " fill="#FDB015" transform="translate(98,217)"/>
<path d="M0 0 C8.91 0 17.82 0 27 0 C27.33 0.99 27.66 1.98 28 3 C28.99 3.33 29.98 3.66 31 4 C31.02683987 6.97922593 31.04676037 9.95821295 31.0625 12.9375 C31.07087891 13.78763672 31.07925781 14.63777344 31.08789062 15.51367188 C31.09111328 16.32255859 31.09433594 17.13144531 31.09765625 17.96484375 C31.10289307 18.7137085 31.10812988 19.46257324 31.11352539 20.23413086 C31 22 31 22 30 23 C27 23.125 27 23.125 24 23 C23 22 23 22 22.90234375 18.83984375 C22.91394531 17.55207031 22.92554688 16.26429688 22.9375 14.9375 C22.94652344 13.64714844 22.95554687 12.35679687 22.96484375 11.02734375 C22.97644531 10.02832031 22.98804688 9.02929688 23 8 C21.68 8 20.36 8 19 8 C19.01160156 8.99902344 19.02320313 9.99804688 19.03515625 11.02734375 C19.04417969 12.31769531 19.05320312 13.60804688 19.0625 14.9375 C19.07410156 16.22527344 19.08570313 17.51304687 19.09765625 18.83984375 C19 22 19 22 18 23 C16.65732587 23.08631874 15.31025678 23.10706473 13.96484375 23.09765625 C13.15595703 23.09443359 12.34707031 23.09121094 11.51367188 23.08789062 C10.66353516 23.07951172 9.81339844 23.07113281 8.9375 23.0625 C8.08349609 23.05798828 7.22949219 23.05347656 6.34960938 23.04882812 C4.23304337 23.03700373 2.11651315 23.01906769 0 23 C-0.33 22.01 -0.66 21.02 -1 20 C-1.99 19.67 -2.98 19.34 -4 19 C-4 14.05 -4 9.1 -4 4 C-3.01 3.67 -2.02 3.34 -1 3 C-0.67 2.01 -0.34 1.02 0 0 Z M4 8 C4 10.31 4 12.62 4 15 C6.31 15 8.62 15 11 15 C11 12.69 11 10.38 11 8 C8.69 8 6.38 8 4 8 Z " fill="#000000" transform="translate(242,237)"/>
<path d="M0 0 C3.96 0 7.92 0 12 0 C12 8.91 12 17.82 12 27 C9.36 27 6.72 27 4 27 C4 29.97 4 32.94 4 36 C-1.61 36 -7.22 36 -13 36 C-13 28.41 -13 20.82 -13 13 C-8.71 13 -4.42 13 0 13 C0 8.71 0 4.42 0 0 Z " fill="#78C00F" transform="translate(145,56)"/>
<path d="M0 0 C12.21 0 24.42 0 37 0 C37 1.32 37 2.64 37 4 C26.77 4 16.54 4 6 4 C6 23.14 6 42.28 6 62 C16.23 62 26.46 62 37 62 C37 58.37 37 54.74 37 51 C33.04 51 29.08 51 25 51 C25 50.67 25 50.34 25 50 C29.29 50 33.58 50 38 50 C38 54.29 38 58.58 38 63 C25.79 63 13.58 63 1 63 C1 66.96 1 70.92 1 75 C0.67 75 0.34 75 0 75 C0 71.04 0 67.08 0 63 C-3.96 63 -7.92 63 -12 63 C-12 62.67 -12 62.34 -12 62 C-8.04 62 -4.08 62 0 62 C0 41.54 0 21.08 0 0 Z " fill="#614001" transform="translate(73,179)"/>
<path d="M0 0 C12.54 0 25.08 0 38 0 C38 4.29 38 8.58 38 13 C25.46 13 12.92 13 0 13 C0 8.71 0 4.42 0 0 Z " fill="#2E8904" transform="translate(181,133)"/>
<path d="M0 0 C4.29 0 8.58 0 13 0 C13.02312202 11.84765173 13.04091437 23.69529814 13.05181217 35.5429678 C13.05704131 41.04370862 13.06413951 46.54443405 13.07543945 52.04516602 C13.08626725 57.3489656 13.0922766 62.65275035 13.09487724 67.95656013 C13.09673169 69.98485612 13.10035267 72.01315126 13.10573006 74.04144096 C13.11293906 76.87196514 13.113991 79.70242718 13.11352539 82.53295898 C13.11712067 83.38028091 13.12071594 84.22760284 13.12442017 85.1006012 C13.11405216 90.88594784 13.11405216 90.88594784 12 92 C7.71 92 3.42 92 -1 92 C-1 75.83 -1 59.66 -1 43 C-0.67 43 -0.34 43 0 43 C0 49.93 0 56.86 0 64 C3.96 64 7.92 64 12 64 C12 43.21 12 22.42 12 1 C8.04 1 4.08 1 0 1 C0 0.67 0 0.34 0 0 Z " fill="#45690D" transform="translate(145,55)"/>
<path d="M0 0 C12.54 0 25.08 0 38 0 C38 4.29 38 8.58 38 13 C25.29571603 13.13809004 12.68270851 12.74136918 0 12 C0 8.04 0 4.08 0 0 Z " fill="#78C20F" transform="translate(182,56)"/>
<path d="M0 0 C16.83 0 33.66 0 51 0 C51 13 51 13 48.75 15.8125 C43.34729791 17.52335566 38.65880327 17.25150237 33 17 C33 13.04 33 9.08 33 5 C22.11 5 11.22 5 0 5 C0 3.35 0 1.7 0 0 Z " fill="#4B280B" transform="translate(182,69)"/>
<path d="M0 0 C12.21 0 24.42 0 37 0 C37 3.96 37 7.92 37 12 C24.79 12 12.58 12 0 12 C0 8.04 0 4.08 0 0 Z " fill="#FECD72" transform="translate(73,166)"/>
<path d="M0 0 C2.64 0 5.28 0 8 0 C8 11.88 8 23.76 8 36 C4.04 36 0.08 36 -4 36 C-4.33 28.08 -4.66 20.16 -5 12 C-8.96 12 -12.92 12 -17 12 C-17 11.01 -17 10.02 -17 9 C-11.39 9 -5.78 9 0 9 C0 6.03 0 3.06 0 0 Z " fill="#67AE0D" transform="translate(149,83)"/>
<path d="M0 0 C4.29 0 8.58 0 13 0 C13 8.25 13 16.5 13 25 C8.71 25 4.42 25 0 25 C0 16.75 0 8.5 0 0 Z " fill="#4E950F" transform="translate(106,121)"/>
<path d="M0 0 C3.96 0 7.92 0 12 0 C12 8.91 12 17.82 12 27 C8.04 27 4.08 27 0 27 C0 18.09 0 9.18 0 0 Z " fill="#4E970F" transform="translate(68,119)"/>
<path d="M0 0 C3.96 0 7.92 0 12 0 C12 8.25 12 16.5 12 25 C8.04 25 4.08 25 0 25 C0 16.75 0 8.5 0 0 Z " fill="#67B00D" transform="translate(119,95)"/>
<path d="M0 0 C1.60279192 0.00015914 3.20558896 0.00585476 4.80834961 0.01586914 C5.65038437 0.01728409 6.49241913 0.01869904 7.35997009 0.02015686 C10.06024671 0.02577276 12.76044163 0.03832791 15.46069336 0.05102539 C17.28686404 0.05603834 19.11303602 0.06060161 20.93920898 0.06469727 C25.42556878 0.07574735 29.9118672 0.0930226 34.39819336 0.11352539 C34.39819336 4.40352539 34.39819336 8.69352539 34.39819336 13.11352539 C38.35819336 13.11352539 42.31819336 13.11352539 46.39819336 13.11352539 C46.39819336 17.40352539 46.39819336 21.69352539 46.39819336 26.11352539 C42.10819336 26.11352539 37.81819336 26.11352539 33.39819336 26.11352539 C33.39819336 22.15352539 33.39819336 18.19352539 33.39819336 14.11352539 C21.18819336 14.11352539 8.97819336 14.11352539 -3.60180664 14.11352539 C-3.60180664 17.74352539 -3.60180664 21.37352539 -3.60180664 25.11352539 C-3.93180664 25.11352539 -4.26180664 25.11352539 -4.60180664 25.11352539 C-4.60180664 21.48352539 -4.60180664 17.85352539 -4.60180664 14.11352539 C-8.56180664 14.11352539 -12.52180664 14.11352539 -16.60180664 14.11352539 C-16.60180664 13.78352539 -16.60180664 13.45352539 -16.60180664 13.11352539 C-12.64180664 13.11352539 -8.68180664 13.11352539 -4.60180664 13.11352539 C-4.62243164 11.15415039 -4.64305664 9.19477539 -4.66430664 7.17602539 C-4.68557852 5.15519663 -4.67424717 3.13316738 -4.60180664 1.11352539 C-3.60180664 0.11352539 -3.60180664 0.11352539 0 0 Z M-3.60180664 1.11352539 C-3.60180664 5.07352539 -3.60180664 9.03352539 -3.60180664 13.11352539 C8.60819336 13.11352539 20.81819336 13.11352539 33.39819336 13.11352539 C33.39819336 9.15352539 33.39819336 5.19352539 33.39819336 1.11352539 C21.18819336 1.11352539 8.97819336 1.11352539 -3.60180664 1.11352539 Z " fill="#A7833F" transform="translate(76.601806640625,164.886474609375)"/>
<path d="M0 0 C5.28 0 10.56 0 16 0 C16 5.94 16 11.88 16 18 C10.72 18 5.44 18 0 18 C0 12.06 0 6.12 0 0 Z " fill="#93CE13" transform="translate(132,74)"/>
<path d="M0 0 C0.33 0 0.66 0 1 0 C1 13.53 1 27.06 1 41 C2.98 41 4.96 41 7 41 C7 43.97 7 46.94 7 50 C8.98 50 10.96 50 13 50 C13 54.62 13 59.24 13 64 C8.71 64 4.42 64 0 64 C0 42.88 0 21.76 0 0 Z " fill="#2D8404" transform="translate(168,69)"/>
<path d="M0 0 C2.97 0 5.94 0 9 0 C9 0.66 9 1.32 9 2 C11.64 2 14.28 2 17 2 C17 2.33 17 2.66 17 3 C12.71 3 8.42 3 4 3 C4 10.92 4 18.84 4 27 C0.04 27 -3.92 27 -8 27 C-8 21.06 -8 15.12 -8 9 C-5.03 9 -2.06 9 1 9 C0.67 6.03 0.34 3.06 0 0 Z " fill="#67AF0D" transform="translate(76,92)"/>
<path d="M0 0 C0.33 0 0.66 0 1 0 C1 29.04 1 58.08 1 88 C0.01 88 -0.98 88 -2 88 C-2.04637466 77.41217088 -2.08189532 66.82436599 -2.10362434 56.23645592 C-2.11405405 51.31987287 -2.12819849 46.40335941 -2.15087891 41.48681641 C-2.17263616 36.7406 -2.18457474 31.99445045 -2.18975449 27.24818802 C-2.19344506 25.43892998 -2.20065181 23.62967553 -2.21146011 21.82044601 C-2.22601331 19.28304941 -2.22797634 16.74592783 -2.22705078 14.20849609 C-2.23424133 13.46330719 -2.24143188 12.71811829 -2.24884033 11.9503479 C-2.23166137 7.58764608 -1.60766338 4.05576298 0 0 Z " fill="#644407" transform="translate(182,166)"/>
<path d="M0 0 C0.88602402 0.00222061 1.77204803 0.00444122 2.68492126 0.00672913 C3.68588333 0.00680466 4.6868454 0.00688019 5.71813965 0.00695801 C6.80666733 0.01211929 7.89519501 0.01728058 9.01670837 0.02259827 C10.67928932 0.02472069 10.67928932 0.02472069 12.37545776 0.02688599 C15.93168281 0.03250418 19.48784596 0.04505977 23.04405212 0.05775452 C25.44834809 0.06276717 27.85264504 0.06733048 30.25694275 0.07142639 C36.16516716 0.08247952 42.07335522 0.09923535 47.98155212 0.12025452 C46.77498962 1.07931702 46.77498962 1.07931702 45.54405212 2.05775452 C43.70650172 3.52628954 43.70650172 3.52628954 41.98155212 5.12025452 C40.5703751 5.24235375 39.15334754 5.29796324 37.73716736 5.32557678 C36.3858799 5.35549461 36.3858799 5.35549461 35.0072937 5.38601685 C34.02813492 5.40272934 33.04897614 5.41944183 32.04014587 5.43666077 C30.54403526 5.46783241 30.54403526 5.46783241 29.0177002 5.49963379 C25.8182237 5.56524089 22.6186623 5.62406585 19.41905212 5.68275452 C17.25563174 5.72592914 15.09222007 5.76954307 12.92881775 5.81361389 C7.61315339 5.92093354 2.29740378 6.02267878 -3.01844788 6.12025452 C-3.06116888 4.45413547 -3.0590862 2.78642567 -3.01844788 1.12025452 C-2.01844788 0.12025452 -2.01844788 0.12025452 0 0 Z " fill="#8B5E08" transform="translate(198.01844787597656,177.87974548339844)"/>
<path d="M0 0 C5.94 0 11.88 0 18 0 C18 4.29 18 8.58 18 13 C12.06 13 6.12 13 0 13 C0 8.71 0 4.42 0 0 Z " fill="#91C912" transform="translate(202,56)"/>
<path d="M0 0 C4.29 0 8.58 0 13 0 C13 0.66 13 1.32 13 2 C9.7 2 6.4 2 3 2 C3 18.17 3 34.34 3 51 C0.11584117 52.44207941 -2.41721528 52.09394887 -5.625 52.0625 C-6.81351562 52.05347656 -8.00203125 52.04445312 -9.2265625 52.03515625 C-10.14179687 52.02355469 -11.05703125 52.01195312 -12 52 C-12 51.67 -12 51.34 -12 51 C-8.04 51 -4.08 51 0 51 C0 34.17 0 17.34 0 0 Z " fill="#513B0C" transform="translate(80,95)"/>
<path d="M0 0 C2.97 0 5.94 0 9 0 C9 5.61 9 11.22 9 17 C5.04 17 1.08 17 -3 17 C-3 14.03 -3 11.06 -3 8 C-2.01 8 -1.02 8 0 8 C0 5.36 0 2.72 0 0 Z " fill="#2D8804" transform="translate(148,129)"/>
<path d="M0 0 C4.29 0 8.58 0 13 0 C13 0.99 13 1.98 13 3 C13.99 3 14.98 3 16 3 C16 8.28 16 13.56 16 19 C14.68 19 13.36 19 12 19 C12 14.05 12 9.1 12 4 C9.36 4 6.72 4 4 4 C4 8.95 4 13.9 4 19 C2.68 19 1.36 19 0 19 C0 12.73 0 6.46 0 0 Z " fill="#C68608" transform="translate(255,239)"/>
<path d="M0 0 C4.29 0 8.58 0 13 0 C13 4.29 13 8.58 13 13 C8.71 13 4.42 13 0 13 C0 8.71 0 4.42 0 0 Z " fill="#77B90E" transform="translate(220,69)"/>
<path d="M0 0 C4.29 0 8.58 0 13 0 C13 4.95 13 9.9 13 15 C12.01 15 11.02 15 10 15 C10 13.02 10 11.04 10 9 C8.02 9 6.04 9 4 9 C4 11.31 4 13.62 4 16 C2.68 15.67 1.36 15.34 0 15 C0 10.05 0 5.1 0 0 Z " fill="#75BC0E" transform="translate(93,95)"/>
<path d="M0 0 C4.29 0 8.58 0 13 0 C13 3.96 13 7.92 13 12 C8.71 12 4.42 12 0 12 C0 8.04 0 4.08 0 0 Z " fill="#4C920E" transform="translate(219,121)"/>
<path d="M0 0 C0.33 0 0.66 0 1 0 C1 19.14 1 38.28 1 58 C11.56 58 22.12 58 33 58 C33.33 54.37 33.66 50.74 34 47 C35.32 47 36.64 47 38 47 C38 50.96 38 54.92 38 59 C25.46 59 12.92 59 0 59 C0 39.53 0 20.06 0 0 Z " fill="#36250C" transform="translate(181,74)"/>
<path d="M0 0 C3.96 0 7.92 0 12 0 C12 3.96 12 7.92 12 12 C8.04 12 4.08 12 0 12 C0 8.04 0 4.08 0 0 Z " fill="#FCC760" transform="translate(111,179)"/>
<path d="M0 0 C1.97909398 -0.02686553 3.95828971 -0.04633375 5.9375 -0.0625 C7.03964844 -0.07410156 8.14179688 -0.08570313 9.27734375 -0.09765625 C12 0 12 0 13 1 C13.0940067 2.96369153 13.11743381 4.93079199 13.11352539 6.89672852 C13.11344986 8.15796036 13.11337433 9.4191922 13.11329651 10.71864319 C13.1081891 12.10539794 13.10297309 13.49215229 13.09765625 14.87890625 C13.09579201 16.28995209 13.09436814 17.70099857 13.09336853 19.11204529 C13.08954379 22.83240535 13.0797139 26.5527266 13.06866455 30.27307129 C13.05844948 34.06680781 13.05387071 37.86055058 13.04882812 41.65429688 C13.03809158 49.10288436 13.02049515 56.5514318 13 64 C8.71 64 4.42 64 0 64 C0 63.67 0 63.34 0 63 C3.96 63 7.92 63 12 63 C12 43.86 12 24.72 12 5 C8.37 5 4.74 5 1 5 C0.67 3.35 0.34 1.7 0 0 Z " fill="#8C6418" transform="translate(134,178)"/>
<path d="M0 0 C0.99 0 1.98 0 3 0 C3 5.61 3 11.22 3 17 C-0.96 17 -4.92 17 -9 17 C-9 14.03 -9 11.06 -9 8 C-6.03 8 -3.06 8 0 8 C0 5.36 0 2.72 0 0 Z " fill="#2C8804" transform="translate(77,129)"/>
<path d="M0 0 C3.3 0 6.6 0 10 0 C10 1.32 10 2.64 10 4 C7.03 4 4.06 4 1 4 C1 7.63 1 11.26 1 15 C3.97 15 6.94 15 10 15 C10 16.32 10 17.64 10 19 C6.7 19 3.4 19 0 19 C0 18.01 0 17.02 0 16 C-0.99 16 -1.98 16 -3 16 C-3 11.71 -3 7.42 -3 3 C-2.01 3 -1.02 3 0 3 C0 2.01 0 1.02 0 0 Z " fill="#E0980A" transform="translate(243,239)"/>
<path d="M0 0 C4.29 0 8.58 0 13 0 C13 2.97 13 5.94 13 9 C8.71 9 4.42 9 0 9 C0 6.03 0 3.06 0 0 Z " fill="#2D8504" transform="translate(106,137)"/>
<path d="M0 0 C1.98 0 3.96 0 6 0 C6 5.94 6 11.88 6 18 C4.02 18 2.04 18 0 18 C0 12.06 0 6.12 0 0 Z " fill="#68B00D" transform="translate(175,101)"/>
<path d="M0 0 C0.99 0.33 1.98 0.66 3 1 C3 12.55 3 24.1 3 36 C1.515 36.495 1.515 36.495 0 37 C0 24.79 0 12.58 0 0 Z " fill="#5D3E02" transform="translate(123,217)"/>
<path d="M0 0 C4 3 4 3 4.45410156 5.36010742 C4.4331543 6.26607666 4.41220703 7.1720459 4.390625 8.10546875 C4.37773438 9.08837891 4.36484375 10.07128906 4.3515625 11.08398438 C4.31804687 12.10814453 4.28453125 13.13230469 4.25 14.1875 C4.23195313 15.22326172 4.21390625 16.25902344 4.1953125 17.32617188 C4.14814437 19.88504284 4.08234057 22.44205842 4 25 C6.97 25 9.94 25 13 25 C13 25.33 13 25.66 13 26 C8.71 26 4.42 26 0 26 C0 17.42 0 8.84 0 0 Z " fill="#4A270D" transform="translate(93,69)"/>
<path d="M0 0 C11.88 0 23.76 0 36 0 C36 0.99 36 1.98 36 3 C31.19453321 3.07405295 26.3893971 3.12855497 21.58349609 3.16479492 C19.94802059 3.17989911 18.31258571 3.20038389 16.67724609 3.22631836 C14.32899976 3.26263145 11.98128795 3.27970932 9.6328125 3.29296875 C8.53273361 3.31619453 8.53273361 3.31619453 7.41043091 3.33988953 C5.34814453 3.34057617 5.34814453 3.34057617 2 3 C1.34 2.01 0.68 1.02 0 0 Z " fill="#835600" transform="translate(74,179)"/>
<path d="M0 0 C2.64 0 5.28 0 8 0 C8 4.29 8 8.58 8 13 C5.36 13 2.72 13 0 13 C0 8.71 0 4.42 0 0 Z " fill="#4F950F" transform="translate(211,133)"/>
<path d="M0 0 C0.33 0 0.66 0 1 0 C1 13.53 1 27.06 1 41 C2.98 41 4.96 41 7 41 C7 43.97 7 46.94 7 50 C4.69 50 2.38 50 0 50 C0 33.5 0 17 0 0 Z " fill="#578A0E" transform="translate(168,69)"/>
<path d="M0 0 C0.99 0 1.98 0 3 0 C3 7.92 3 15.84 3 24 C5.64 24 8.28 24 11 24 C11 21.36 11 18.72 11 16 C11.33 16 11.66 16 12 16 C12 18.97 12 21.94 12 25 C8.04 25 4.08 25 0 25 C0 16.75 0 8.5 0 0 Z " fill="#529A0F" transform="translate(119,95)"/>
<path d="M0 0 C3.3 0 6.6 0 10 0 C10 2.97 10 5.94 10 9 C6.7 9 3.4 9 0 9 C0 6.03 0 3.06 0 0 Z " fill="#68B10D" transform="translate(76,74)"/>
<path d="M0 0 C3.3 0 6.6 0 10 0 C9.67 2.97 9.34 5.94 9 9 C6.03 9 3.06 9 0 9 C0 6.03 0 3.06 0 0 Z " fill="#91CD12" transform="translate(184,56)"/>
<path d="M0 0 C3 0.125 3 0.125 4 1.125 C4.0979057 2.62238124 4.12974864 4.12442892 4.125 5.625 C4.12757813 6.4396875 4.13015625 7.254375 4.1328125 8.09375 C4 10.125 4 10.125 3 11.125 C0 11.25 0 11.25 -3 11.125 C-4 10.125 -4 10.125 -4.1328125 8.09375 C-4.13023437 7.2790625 -4.12765625 6.464375 -4.125 5.625 C-4.12757813 4.8103125 -4.13015625 3.995625 -4.1328125 3.15625 C-3.9171978 -0.14138652 -3.37034558 0.14043107 0 0 Z " fill="#000000" transform="translate(233,248.875)"/>
<path d="M0 0 C1.98 0 3.96 0 6 0 C6 4.62 6 9.24 6 14 C4.02 14 2.04 14 0 14 C0 9.38 0 4.76 0 0 Z " fill="#4E9610" transform="translate(175,119)"/>
<path d="M0 0 C2.64 0 5.28 0 8 0 C8 0.66 8 1.32 8 2 C9.26714844 1.855625 10.53429687 1.71125 11.83984375 1.5625 C13.53903425 1.37474414 15.23825463 1.18725861 16.9375 1 C17.76830078 0.90460938 18.59910156 0.80921875 19.45507812 0.7109375 C25.00584043 0.10618519 30.416351 -0.09014973 36 0 C35.34 0.99 34.68 1.98 34 3 C31.37537756 3.26697888 28.98934067 3.34832984 26.3671875 3.29296875 C25.23943405 3.28660149 25.23943405 3.28660149 24.08889771 3.28010559 C21.68390315 3.2632917 19.27974191 3.22563624 16.875 3.1875 C15.24610584 3.17245659 13.61719856 3.15876758 11.98828125 3.14648438 C7.99186566 3.11337954 3.99607418 3.06158009 0 3 C0 2.01 0 1.02 0 0 Z " fill="#783C09" transform="translate(182,70)"/>
<path d="M0 0 C0.33 0 0.66 0 1 0 C1 3.96 1 7.92 1 12 C13.21 12 25.42 12 38 12 C38 12.33 38 12.66 38 13 C25.79 13 13.58 13 1 13 C1 16.63 1 20.26 1 24 C0.67 24 0.34 24 0 24 C0 20.37 0 16.74 0 13 C-3.96 13 -7.92 13 -12 13 C-12 12.67 -12 12.34 -12 12 C-8.04 12 -4.08 12 0 12 C0 8.04 0 4.08 0 0 Z " fill="#B68830" transform="translate(72,166)"/>
<path d="M0 0 C3.63 0 7.26 0 11 0 C11 0.66 11 1.32 11 2 C8.36 2 5.72 2 3 2 C3 7.28 3 12.56 3 18 C2.01 18 1.02 18 0 18 C0 12.06 0 6.12 0 0 Z " fill="#F4A60B" transform="translate(256,240)"/>
<path d="M0 0 C12.21 0 24.42 0 37 0 C37 0.33 37 0.66 37 1 C33.85495307 1.34103465 30.70886583 1.67137463 27.5625 2 C26.24475586 2.14308594 26.24475586 2.14308594 24.90039062 2.2890625 C19.23241145 2.87468396 13.69811032 3.09274645 8 3 C8 2.34 8 1.68 8 1 C5.36 1 2.72 1 0 1 C0 0.67 0 0.34 0 0 Z " fill="#395D09" transform="translate(182,69)"/>
<path d="M0 0 C0.99 0.33 1.98 0.66 3 1 C2.34 1 1.68 1 1 1 C1 4.63 1 8.26 1 12 C1.99 11.67 2.98 11.34 4 11 C6.26171875 11.12109375 6.26171875 11.12109375 8.6875 11.4375 C9.49574219 11.53933594 10.30398437 11.64117187 11.13671875 11.74609375 C11.75160156 11.82988281 12.36648437 11.91367188 13 12 C13 13.32 13 14.64 13 16 C9.7 16 6.4 16 3 16 C3 15.01 3 14.02 3 13 C2.01 13 1.02 13 0 13 C0 8.71 0 4.42 0 0 Z " fill="#C68608" transform="translate(240,242)"/>
<path d="M0 0 C3.96 0 7.92 0 12 0 C12 1.65 12 3.3 12 5 C8.37 5 4.74 5 1 5 C0.67 3.35 0.34 1.7 0 0 Z " fill="#895D07" transform="translate(134,178)"/>
<path d="M0 0 C1.32 0 2.64 0 4 0 C4 3.96 4 7.92 4 12 C2.35 12 0.7 12 -1 12 C-0.67 8.04 -0.34 4.08 0 0 Z " fill="#471D0D" transform="translate(215,121)"/>
<path d="M0 0 C1.98 0 3.96 0 6 0 C6 2.97 6 5.94 6 9 C4.02 9 2.04 9 0 9 C0 6.03 0 3.06 0 0 Z " fill="#92CD13" transform="translate(175,101)"/>
<path d="M0 0 C1.98 0 3.96 0 6 0 C6 2.97 6 5.94 6 9 C4.02 9 2.04 9 0 9 C0 6.03 0 3.06 0 0 Z " fill="#67B00D" transform="translate(175,74)"/>
<path d="M0 0 C0.33 0 0.66 0 1 0 C1.33 4.95 1.66 9.9 2 15 C-7.1796875 15.29296875 -7.1796875 15.29296875 -10 15 C-10.66 14.01 -11.32 13.02 -12 12 C-8.04 12 -4.08 12 0 12 C0 8.04 0 4.08 0 0 Z " fill="#865A08" transform="translate(123,179)"/>
<path d="M0 0 C2.31 0 4.62 0 7 0 C7 2.31 7 4.62 7 7 C4.69 7 2.38 7 0 7 C0 4.69 0 2.38 0 0 Z " fill="#67B10D" transform="translate(112,121)"/>
<path d="M0 0 C2.64 0 5.28 0 8 0 C8 1.98 8 3.96 8 6 C5.36 6 2.72 6 0 6 C0 4.02 0 2.04 0 0 Z " fill="#79C10F" transform="translate(122,95)"/>
<path d="M0 0 C0.33 0 0.66 0 1 0 C1 4.29 1 8.58 1 13 C4.63 13 8.26 13 12 13 C9 16 9 16 6.30078125 16.29296875 C5.31464844 16.25816406 4.32851562 16.22335938 3.3125 16.1875 C1.82169922 16.14689453 1.82169922 16.14689453 0.30078125 16.10546875 C-0.45847656 16.07066406 -1.21773437 16.03585938 -2 16 C-1.67 15.34 -1.34 14.68 -1 14 C-0.76970044 11.62876754 -0.58880058 9.25258057 -0.4375 6.875 C-0.35371094 5.59367187 -0.26992187 4.31234375 -0.18359375 2.9921875 C-0.09271484 1.51105469 -0.09271484 1.51105469 0 0 Z " fill="#634A0B" transform="translate(219,69)"/>
<path d="M0 0 C1.485 0.99 1.485 0.99 3 2 C3.41394695 5.36676852 3.13087567 8.59723255 3 12 C6.3 12 9.6 12 13 12 C13 12.33 13 12.66 13 13 C8.71 13 4.42 13 0 13 C0 8.71 0 4.42 0 0 Z " fill="#51340D" transform="translate(80,56)"/>
<path d="M0 0 C3.63 0 7.26 0 11 0 C11 1.32 11 2.64 11 4 C7.37 4 3.74 4 0 4 C0 2.68 0 1.36 0 0 Z " fill="#7A5000" transform="translate(160,179)"/>
<path d="M0 0 C2.97 0 5.94 0 9 0 C9 1.32 9 2.64 9 4 C6.03 4 3.06 4 0 4 C0 2.68 0 1.36 0 0 Z " fill="#4D930F" transform="translate(193,133)"/>
<path d="M0 0 C1.98 0 3.96 0 6 0 C6 1.98 6 3.96 6 6 C4.02 6 2.04 6 0 6 C0 4.02 0 2.04 0 0 Z " fill="#C5E51B" transform="translate(86,86)"/>
<path d="M0 0 C1.32 0 2.64 0 4 0 C4 2.31 4 4.62 4 7 C2.68 7 1.36 7 0 7 C0 4.69 0 2.38 0 0 Z " fill="#CC8A08" transform="translate(231,251)"/>
<path d="M0 0 C3 3 3 3 3.29296875 5.04296875 C3.1953125 7.02864583 3.09765625 9.01432292 3 11 C2.01 11 1.02 11 0 11 C0 7.37 0 3.74 0 0 Z " fill="#4D3100" transform="translate(111,167)"/>
<path d="M0 0 C0.99 0 1.98 0 3 0 C3 2.97 3 5.94 3 9 C2.01 9 1.02 9 0 9 C0 6.03 0 3.06 0 0 Z " fill="#2A8903" transform="translate(145,119)"/>
<path d="M0 0 C0.99 0 1.98 0 3 0 C3 2.97 3 5.94 3 9 C2.01 9 1.02 9 0 9 C0 6.03 0 3.06 0 0 Z " fill="#4F990F" transform="translate(145,110)"/>
<path d="M0 0 C0.99 0 1.98 0 3 0 C3 2.97 3 5.94 3 9 C2.01 9 1.02 9 0 9 C0 6.03 0 3.06 0 0 Z " fill="#4E9A10" transform="translate(77,101)"/>
<path d="M0 0 C0.99 0 1.98 0 3 0 C3 2.64 3 5.28 3 8 C2.01 8 1.02 8 0 8 C0 5.36 0 2.72 0 0 Z " fill="#92CE12" transform="translate(229,74)"/>
<path d="M0 0 C1.98 0 3.96 0 6 0 C6 1.32 6 2.64 6 4 C4.02 4 2.04 4 0 4 C0 2.68 0 1.36 0 0 Z " fill="#94CF13" transform="translate(86,70)"/>
<path d="M0 0 C0.99 0 1.98 0 3 0 C3 1.98 3 3.96 3 6 C2.01 6 1.02 6 0 6 C0 4.02 0 2.04 0 0 Z " fill="#68AF0D" transform="translate(119,95)"/>
<path d="M0 0 C2.97 0 5.94 0 9 0 C7.515 1.485 7.515 1.485 6 3 C2.8125 2.6875 2.8125 2.6875 0 2 C0 1.34 0 0.68 0 0 Z " fill="#6A3808" transform="translate(209,70)"/>
</svg>
